<?xml version="1.0" encoding="utf-8"?><svg xmlns="http://www.w3.org/2000/svg" xmlns:xlink="http://www.w3.org/1999/xlink" width="2050" height="899" preserveAspectRatio="xMidYMid" viewBox="0 0 2050 899" style="z-index:1;margin-right:-1.98864px;display:block;background-repeat-y:initial;background-repeat-x:initial;background-color:rgb(255, 255, 255);animation-play-state:paused" ><g transform="translate(1025,449.5) scale(1,1) translate(-1025,-449.5)" style="transform:matrix(1, 0, 0, 1, 0, 0);animation-play-state:paused" ><g transform="translate(1591.936221379558,9.739189003989452) scale(100)" opacity="0.4" style="transform:matrix(100, 0, 0, 100, 1591.94, 9.73919);opacity:0.4;animation-play-state:paused" ><path d="M6.95975 0 C6.95975 1.6502499999999998 7.225269240317948 2.26596657740473 6.400144240317948 3.6951249999999995 S4.90903342259527 5.202195303988747 3.4798750000000007 6.027320303988747 S1.6502500000000002 7.39025 4.525223003699363e-16 7.39025 S-2.050716577404729 6.8524453039887465 -3.4798749999999985 6.027320303988747 S-5.575019240317946 5.124283422595272 -6.400144240317947 3.6951250000000027 S-6.95975 1.6502500000000007 -6.95975 8.523235560365791e-16 S-7.225269240317948 -2.2659665774047277 -6.400144240317949 -3.6951249999999978 S-4.9090334225952725 -5.202195303988745 -3.479875000000003 -6.027320303988746 S-1.650250000000001 -7.39025 -1.357566901109809e-15 -7.39025 S2.0507165774047253 -6.852445303988748 3.4798749999999954 -6.027320303988749 S5.575019240317945 -5.124283422595273 6.400144240317946 -3.695125000000003 S6.95975 -1.6502500000000015 6.95975 -1.7046471120731581e-15" fill="#31bef4" stroke-width="0" transform="matrix(1,0,0,1,0,0)" style="transform:matrix(1, 0, 0, 1, 0, 0);animation-play-state:paused" ></path></g>
<g transform="translate(1705.3234656554696,-78.21297319521261) scale(100)" opacity="0.4" style="transform:matrix(100, 0, 0, 100, 1705.32, -78.213);opacity:0.4;animation-play-state:paused" ><path d="M8.3517 0 C8.3517 1.9802999999999997 8.670323088381537 2.719159892885675 7.680173088381538 4.434149999999999 S5.8908401071143235 6.242634364786495 4.1758500000000005 7.232784364786495 S1.9803000000000002 8.8683 5.430267604439236e-16 8.8683 S-2.460859892885674 8.222934364786495 -4.175849999999998 7.232784364786496 S-6.690023088381535 6.1491401071143255 -7.680173088381536 4.4341500000000025 S-8.3517 1.9803000000000008 -8.3517 1.0227882672438948e-15 S-8.670323088381538 -2.7191598928856733 -7.6801730883815384 -4.434149999999997 S-5.890840107114326 -6.242634364786493 -4.175850000000003 -7.232784364786494 S-1.9803000000000013 -8.8683 -1.6290802813317707e-15 -8.8683 S2.46085989288567 -8.222934364786497 4.175849999999994 -7.232784364786498 S6.690023088381534 -6.149140107114326 7.680173088381535 -4.434150000000003 S8.3517 -1.9803000000000017 8.3517 -2.0455765344877897e-15" fill="#31bef4" stroke-width="0" transform="matrix(1,0,0,1,0,0)" style="transform:matrix(1, 0, 0, 1, 0, 0);animation-play-state:paused" ></path></g>
<g transform="translate(1977.452851917657,-289.2981624732977) scale(100)" opacity="0.4" style="transform:matrix(100, 0, 0, 100, 1977.45, -289.298);opacity:0.4;animation-play-state:paused" ><path d="M11.692379999999998 0 C11.692379999999998 2.7724199999999994 12.138452323734152 3.8068238500399456 10.752242323734151 6.2078099999999985 S8.247176149960053 8.739688110701092 5.84619 10.125898110701092 S2.7724200000000003 12.415619999999999 7.60237464621493e-16 12.415619999999999 S-3.4452038500399436 11.512108110701092 -5.8461899999999964 10.125898110701094 S-9.36603232373415 8.608796149960057 -10.75224232373415 6.207810000000004 S-11.692379999999998 2.7724200000000008 -11.692379999999998 1.4319035741414527e-15 S-12.138452323734152 -3.8068238500399425 -10.752242323734153 -6.207809999999996 S-8.247176149960056 -8.739688110701092 -5.846190000000004 -10.125898110701092 S-2.7724200000000017 -12.415619999999999 -2.280712393864479e-15 -12.415619999999999 S3.445203850039937 -11.512108110701096 5.846189999999991 -10.125898110701097 S9.366032323734146 -8.608796149960057 10.752242323734148 -6.207810000000005 S11.692379999999998 -2.772420000000002 11.692379999999998 -2.8638071482829054e-15" fill="#31bef4" stroke-width="0" transform="matrix(1,0,0,1,0,0)" style="transform:matrix(1, 0, 0, 1, 0, 0);animation-play-state:paused" ></path></g></g></svg>