<?xml version="1.0" encoding="utf-8"?>
<!-- Generator: Adobe Illustrator 24.0.0, SVG Export Plug-In . SVG Version: 6.00 Build 0)  -->
<svg version="1.1" id="Layer_1" xmlns="http://www.w3.org/2000/svg" xmlns:xlink="http://www.w3.org/1999/xlink" x="0px" y="0px"
	 viewBox="0 0 512 512" style="enable-background:new 0 0 512 512;" xml:space="preserve">
<style type="text/css">
	.st0{fill:#31bef4;}
	.st1{fill:#3d90c9;}
	.st2{fill:#3d90c9;}
</style>
<g>
	<g id="_OUTLINE">
		<path class="st0" d="M48,48h16v16H48V48z"/>
		<path class="st0" d="M80,48h16v16H80V48z"/>
		<path class="st0" d="M112,48h16v16h-16V48z"/>
		<path class="st0" d="M400,48h16v16h-16V48z"/>
		<path class="st0" d="M48,112h32v16H48V112z"/>
		<path class="st0" d="M48,160h32v16H48V160z"/>
		<path class="st0" d="M48,208h32v16H48V208z"/>
		<path class="st0" d="M48,256h32v16H48V256z"/>
		<path class="st0" d="M48,304h32v16H48V304z"/>
		<path class="st0" d="M128,112h80v16h-80V112z"/>
		<path class="st1" d="M208,144h-80v64h80V144z M192,192h-48v-32h48V192z"/>
		<path class="st0" d="M232,112h80v16h-80V112z"/>
		<path class="st1" d="M232,208h80v-64h-80V208z M248,160h48v32h-48V160z"/>
		<path class="st0" d="M336,112h80v16h-80V112z"/>
		<path class="st1" d="M336,208h80v-64h-80V208z M352,160h48v32h-48V160z"/>
		<path class="st1" d="M208,224h-80v64h80V224z M192,272h-48v-32h48V272z"/>
		<path class="st1" d="M128,368h80v-64h-80V368z M144,320h48v32h-48V320z"/>
		<path class="st2" d="M280.4,367.3l15.9,1.4c3.1-32.9,26.1-60.6,57.9-69.7l-4.4-15.4C311.7,294.6,284.1,327.8,280.4,367.3z"/>
		<path class="st2" d="M383.3,455.7l1.4,15.9c25.5-2.2,49.1-14.7,65.3-34.5l-12.3-10.2C424.2,443.4,404.6,453.8,383.3,455.7z"/>
		<path class="st0" d="M400,336h64v16h-64V336z"/>
		<path class="st0" d="M400,368h64v16h-64V368z"/>
		<path class="st1" d="M345.4,418l12.3-12.3l-11.3-11.3L334,406.6c-4.3-2.8-9-4.8-14-5.8V384h-16v16.8c-5,1-9.8,3-14,5.8l-12.3-12.3
			l-11.3,11.3l12.3,12.3c-2.8,4.3-4.8,9-5.8,14H256v16h16.8c1,5,3,9.8,5.8,14l-12.3,12.3l11.3,11.3l12.3-12.3c4.3,2.8,9,4.8,14,5.8
			V496h16v-16.8c5-1,9.8-3,14-5.8l12.3,12.3l11.3-11.3L345.4,462c2.8-4.3,4.8-9,5.8-14H368v-16h-16.8
			C350.2,427,348.2,422.2,345.4,418z M312,464c-13.3,0-24-10.7-24-24s10.7-24,24-24s24,10.7,24,24C336,453.2,325.2,464,312,464z"/>
		<path class="st1" d="M450.3,263c-4.5-4.5-10.6-7-17-7H392c-13.2,0-24,10.8-24,24v112c0,13.2,10.8,24,24,24h80
			c13.2,0,24-10.8,24-24v-73.4c0-6.4-2.5-12.5-7-17L450.3,263z M448,283.3l20.7,20.7H456c-4.4,0-8-3.6-8-8V283.3z M480,392
			c0,4.4-3.6,8-8,8h-80c-4.4,0-8-3.6-8-8V280c0-4.4,3.6-8,8-8h40v24c0,13.2,10.8,24,24,24h24V392z"/>
		<path class="st0" d="M400,304h16v16h-16V304z"/>
		<path class="st1" d="M232,288h80v-64h-80V288z M248,240h48v32h-48V240z"/>
		<path class="st1" d="M232,368h32v-16h-16v-32h24v-16h-40V368z"/>
		<path class="st2" d="M472,64h-24V40c0-13.2-10.8-24-24-24H40c-13.2,0-24,10.8-24,24v336c0,13.2,10.8,24,24,24h24v24
			c0,13.2,10.8,24,24,24h152v-16H88c-4.4,0-8-3.6-8-8v-24h176v-16H112V96h320v139.4h16V80h24c4.4,0,8,3.6,8,8v184h16V88
			C496,74.8,485.2,64,472,64z M96,384H40c-4.4,0-8-3.6-8-8V96h64V384z M432,80H32V40c0-4.4,3.6-8,8-8h384c4.4,0,8,3.6,8,8V80z"/>
		<path class="st0" d="M336,224h80v16h-80V224z"/>
	</g>
</g>
</svg>
