<?xml version="1.0" encoding="utf-8"?>
<!-- Generator: Adobe Illustrator 24.0.0, SVG Export Plug-In . SVG Version: 6.00 Build 0)  -->
<svg version="1.1" id="Capa_1" xmlns="http://www.w3.org/2000/svg" xmlns:xlink="http://www.w3.org/1999/xlink" x="0px" y="0px"
	 viewBox="0 0 512 512" style="enable-background:new 0 0 512 512;" xml:space="preserve">
<style type="text/css">
	.st0{fill:#3d90c9;}
	.st1{fill:#31bef4;}
	.st2{fill:#69DDE9;}
</style>
<g>
	<g>
		<g>
			<path class="st0" d="M460.9,268.5c4.5-6.7,7.2-14.8,7.2-23.5v-8c0-23.2-18.9-42.1-42.1-42.1c-11.6,0-22.1,4.7-29.7,12.3
				c-19.7-58.6-75.2-100.9-140.3-100.9s-120.6,42.3-140.3,100.9c-7.6-7.6-18.1-12.3-29.7-12.3c-23.2,0-42.1,18.9-42.1,42.1v8
				c0,8.7,2.6,16.8,7.2,23.5c-29.1,6.1-51.1,32-51.1,63v20.1c0,5.5,4.5,10,10,10h52c5.5,0,10-4.5,10-10s-4.5-10-10-10H20v-10.1
				c0-24.5,19.9-44.3,44.3-44.3h47.3c3.8,16.9,10.6,32.7,19.6,46.8L17.2,448c-14.6,14.6-14.6,38.4,0,53c7.3,7.3,16.9,11,26.5,11
				s19.2-3.7,26.5-11l62.9-62.9c3.9-3.9,3.9-10.2,0-14.1c-3.9-3.9-10.2-3.9-14.1,0l-62.9,62.9c-6.8,6.8-17.9,6.8-24.7,0
				c-6.8-6.8-6.8-17.9,0-24.7l112-112c27.2,31.9,67.6,52.1,112.6,52.1c70.3,0,129.4-49.3,144.3-115.2h47.3
				c24.5,0,44.3,19.9,44.3,44.3v10.1h-94c-5.5,0-10,4.5-10,10s4.5,10,10,10h104c5.5,0,10-4.5,10-10v-20.1
				C512,300.5,490.1,274.6,460.9,268.5z M108.1,245c0,12.2-9.9,22.1-22.1,22.1s-22.1-9.9-22.1-22.1v-8c0-12.2,9.9-22.1,22.1-22.1
				s22.1,9.9,22.1,22.1V245z M256,382.3c-70.6,0-128-57.4-128-128s57.4-128,128-128s128,57.4,128,128S326.6,382.3,256,382.3z
				 M448.1,245c0,12.2-9.9,22.1-22.1,22.1s-22.1-9.9-22.1-22.1v-8c0-12.2,9.9-22.1,22.1-22.1s22.1,9.9,22.1,22.1V245z"/>
		</g>
	</g>
	<g>
		<g>
			<path class="st1" d="M256,146.3c-59.6,0-108,48.4-108,108c0,30.9,13.1,58.8,33.9,78.5c0.4,0.4,0.7,0.8,1.2,1.1
				c19.2,17.6,44.8,28.4,72.9,28.4s53.7-10.8,72.9-28.4c0.4-0.3,0.8-0.7,1.2-1.1c20.9-19.7,33.9-47.6,33.9-78.5
				C364,194.7,315.6,146.3,256,146.3z M256,342.3c-20.6,0-39.5-7.1-54.5-19c10.6-20.1,31.3-32.8,54.5-32.8s43.9,12.6,54.5,32.8
				C295.5,335.2,276.6,342.3,256,342.3z M234.9,249.5v-7.8c0-11.6,9.5-21.1,21.1-21.1s21.1,9.5,21.1,21.1v7.8
				c0,11.6-9.5,21.1-21.1,21.1S234.9,261.1,234.9,249.5z M325.1,308.7c-9.2-14.6-22.6-25.8-38.3-32.1c6.3-7.2,10.2-16.7,10.2-27.1
				v-7.8c0-22.6-18.4-41.1-41.1-41.1s-41.1,18.4-41.1,41.1v7.8c0,10.4,3.9,19.8,10.2,27.1c-15.7,6.4-29.1,17.5-38.3,32.1
				c-11.8-15-18.9-33.9-18.9-54.4c0-48.5,39.5-88,88-88s88,39.5,88,88C344,274.8,336.9,293.7,325.1,308.7z"/>
		</g>
	</g>
	<g>
		<g>
			<path class="st2" d="M159.9,397.2c-1.9-1.9-4.4-2.9-7.1-2.9s-5.2,1.1-7.1,2.9c-1.9,1.9-2.9,4.4-2.9,7.1s1.1,5.2,2.9,7.1
				c1.9,1.9,4.4,2.9,7.1,2.9s5.2-1.1,7.1-2.9c1.9-1.9,2.9-4.4,2.9-7.1S161.7,399.1,159.9,397.2z"/>
		</g>
	</g>
	<g>
		<g>
			<path class="st2" d="M256.2,0c-5.5,0-10,4.5-10,10v34c0,5.5,4.5,10,10,10s10-4.5,10-10V10C266.2,4.5,261.7,0,256.2,0z"/>
		</g>
	</g>
	<g>
		<g>
			<path class="st2" d="M263.3,69.9c-1.9-1.9-4.4-2.9-7.1-2.9c-2.6,0-5.2,1.1-7.1,2.9s-2.9,4.4-2.9,7.1s1.1,5.2,2.9,7.1
				c1.9,1.9,4.4,2.9,7.1,2.9c2.6,0,5.2-1.1,7.1-2.9c1.9-1.9,2.9-4.4,2.9-7.1C266.2,74.4,265.1,71.8,263.3,69.9z"/>
		</g>
	</g>
	<g>
		<g>
			<path class="st2" d="M341,39.2c-3.9-3.9-10.2-3.9-14.1,0l-17.6,17.6c-3.9,3.9-3.9,10.2,0,14.1c2,2,4.5,2.9,7.1,2.9s5.1-1,7.1-2.9
				L341,53.4C344.9,49.5,344.9,43.1,341,39.2z"/>
		</g>
	</g>
	<g>
		<g>
			<path class="st2" d="M202.9,56.9l-17.7-17.7c-3.9-3.9-10.2-3.9-14.1,0c-3.9,3.9-3.9,10.2,0,14.1l17.7,17.7c2,2,4.5,2.9,7.1,2.9
				s5.1-1,7.1-2.9C206.8,67.2,206.8,60.8,202.9,56.9z"/>
		</g>
	</g>
</g>
</svg>
