<?xml version="1.0" encoding="utf-8"?>
<!-- Generator: Adobe Illustrator 24.0.0, SVG Export Plug-In . SVG Version: 6.00 Build 0)  -->
<svg version="1.1" id="Layer_1" xmlns="http://www.w3.org/2000/svg" xmlns:xlink="http://www.w3.org/1999/xlink" x="0px" y="0px"
	 viewBox="0 0 512 512" style="enable-background:new 0 0 512 512;" xml:space="preserve">
<style type="text/css">
	.st0{fill:#3d90c9;}
	.st1{fill:#46ABF2;}
	.st2{fill:#31bef4;}
</style>
<g>
	<path class="st0" d="M8.5,179.2H128c4.7,0,8.5-3.8,8.5-8.5v-65c0-19.9-12.7-36.9-30.5-43.2c4.8-9.1,6.2-19.6,3.6-30.2
		C105.9,16.8,93.5,4.6,78.1,1.1c-13-2.9-26.3,0.1-36.5,8.2c-10.2,8.1-16,20.3-16,33.3c0,6.9,1.7,13.7,4.9,19.7
		C12.8,68.7,0,85.7,0,105.6v65C0,175.4,3.8,179.2,8.5,179.2z M17.1,105.6c0-15.9,12.9-28.8,28.8-28.8c3.6,0,6.7-2.2,8-5.5
		c1.2-3.3,0.3-7.1-2.4-9.4c-5.7-5-8.8-11.8-8.8-19.2c0-7.8,3.5-15.1,9.6-20c6.2-5,14-6.7,22-4.9c9,2,16.5,9.5,18.7,18.5
		c2.3,9.6-0.7,19.1-8.1,25.6c-2.7,2.3-3.6,6.1-2.4,9.4c1.2,3.3,4.4,5.5,8,5.5c15.9,0,28.8,12.9,28.8,28.8v56.5H17.1V105.6z"/>
	<path class="st0" d="M481.5,62.4c4.8-9.1,6.2-19.6,3.6-30.2C481.4,16.8,469,4.6,453.6,1.1c-13-2.9-26.3,0.1-36.5,8.2
		c-10.2,8.2-16,20.3-16,33.4c0,6.9,1.7,13.7,4.9,19.7c-17.8,6.3-30.5,23.3-30.5,43.2v65c0,4.7,3.8,8.5,8.5,8.5h119.5
		c4.7,0,8.5-3.8,8.5-8.5v-65C512,85.7,499.3,68.8,481.5,62.4z M494.9,162.1H392.5v-56.5c0-15.9,12.9-28.8,28.8-28.8
		c3.6,0,6.7-2.2,8-5.5c1.2-3.3,0.3-7.1-2.4-9.4c-5.7-5-8.8-11.8-8.8-19.2c0-7.8,3.5-15.1,9.6-20c6.2-5,14-6.7,22-4.9
		c9,2,16.5,9.5,18.7,18.5c2.3,9.6-0.7,19.1-8.1,25.6c-2.7,2.3-3.6,6.1-2.4,9.4c1.2,3.3,4.4,5.5,8,5.5c15.9,0,28.8,12.9,28.8,28.8
		V162.1z"/>
	<path class="st0" d="M8.5,512H128c4.7,0,8.5-3.8,8.5-8.5v-65c0-19.9-12.7-36.9-30.5-43.2c4.8-9.1,6.2-19.6,3.6-30.2
		c-3.7-15.4-16.1-27.6-31.5-31.1c-13-3-26.3,0.1-36.5,8.2c-10.2,8.2-16,20.3-16,33.4c0,6.9,1.7,13.7,4.9,19.7
		C12.8,401.5,0,418.5,0,438.4v65C0,508.2,3.8,512,8.5,512z M17.1,438.4c0-15.9,12.9-28.8,28.8-28.8c3.6,0,6.7-2.2,8-5.5
		s0.3-7.1-2.4-9.4c-5.7-5-8.8-11.8-8.8-19.2c0-7.8,3.5-15.1,9.6-20c6.2-5,14-6.7,22-4.9c9,2,16.5,9.5,18.7,18.5
		c2.3,9.6-0.7,19.1-8.1,25.6c-2.7,2.3-3.6,6.1-2.4,9.4c1.2,3.3,4.4,5.5,8,5.5c15.9,0,28.8,12.9,28.8,28.8v56.5H17.1V438.4z"/>
	<path class="st0" d="M481.5,395.2c4.8-9.1,6.2-19.6,3.6-30.2c-3.7-15.4-16.1-27.6-31.5-31.1c-13-3-26.3,0.1-36.5,8.2
		c-10.2,8.2-16,20.3-16,33.4c0,6.9,1.7,13.7,4.9,19.7c-17.8,6.3-30.5,23.3-30.5,43.2v65c0,4.7,3.8,8.5,8.5,8.5h119.5
		c4.7,0,8.5-3.8,8.5-8.5v-65C512,418.5,499.3,401.6,481.5,395.2z M494.9,494.9H392.5v-56.5c0-15.9,12.9-28.8,28.8-28.8
		c3.6,0,6.7-2.2,8-5.5c1.2-3.3,0.3-7.1-2.4-9.4c-5.7-5-8.8-11.8-8.8-19.2c0-7.8,3.5-15.1,9.6-20c6.2-5,14-6.7,22-4.9
		c9,2,16.5,9.5,18.7,18.5c2.3,9.6-0.7,19.1-8.1,25.6c-2.7,2.3-3.6,6.1-2.4,9.4c1.2,3.3,4.4,5.5,8,5.5c15.9,0,28.8,12.9,28.8,28.8
		V494.9z"/>
	<path class="st1" d="M204.8,341.3h30.6l40.2,40.2c1.6,1.6,3.8,2.5,6,2.5c1.1,0,2.2-0.2,3.3-0.6c3.2-1.3,5.3-4.4,5.3-7.9v-34.1h25.6
		c14.1,0,25.6-11.5,25.6-25.6v-76.8c0-14.1-11.5-25.6-25.6-25.6H204.8c-14.1,0-25.6,11.5-25.6,25.6v76.8
		C179.2,329.8,190.7,341.3,204.8,341.3z M196.3,238.9c0-4.7,3.8-8.5,8.5-8.5h110.9c4.7,0,8.5,3.8,8.5,8.5v76.8
		c0,4.7-3.8,8.5-8.5,8.5h-34.1c-4.7,0-8.5,3.8-8.5,8.5v22.1L245,326.8c-1.6-1.6-3.8-2.5-6-2.5h-34.1c-4.7,0-8.5-3.8-8.5-8.5V238.9z"
		/>
	<path class="st2" d="M213.3,247.5H256v17.1h-42.7V247.5z"/>
	<path class="st2" d="M273.1,247.5h34.1v17.1h-34.1V247.5z"/>
	<path class="st2" d="M213.3,281.6h17.1v17.1h-17.1V281.6z"/>
	<path class="st2" d="M247.5,281.6h59.7v17.1h-59.7V281.6z"/>
	<path class="st0" d="M119.5,290.1c0,75.3,61.3,136.5,136.5,136.5c75.3,0,136.5-61.2,136.5-136.5c0-75.3-61.2-136.5-136.5-136.5
		C180.7,153.6,119.5,214.9,119.5,290.1z M256,170.7c65.9,0,119.5,53.6,119.5,119.5c0,65.9-53.6,119.5-119.5,119.5
		c-65.9,0-119.5-53.6-119.5-119.5C136.5,224.3,190.1,170.7,256,170.7z"/>
	<path class="st2" d="M153.6,93.9h17.1v17.1h-17.1V93.9z"/>
	<path class="st2" d="M187.7,93.9h17.1v17.1h-17.1V93.9z"/>
	<path class="st2" d="M187.7,128h17.1v17.1h-17.1V128z"/>
	<path class="st2" d="M341.3,93.9h17.1v17.1h-17.1V93.9z"/>
	<path class="st2" d="M307.2,93.9h17.1v17.1h-17.1V93.9z"/>
	<path class="st2" d="M307.2,128h17.1v17.1h-17.1V128z"/>
	<path class="st2" d="M341.3,469.3h17.1v17.1h-17.1V469.3z"/>
	<path class="st2" d="M307.2,469.3h17.1v17.1h-17.1V469.3z"/>
	<path class="st2" d="M307.2,435.2h17.1v17.1h-17.1V435.2z"/>
	<path class="st2" d="M153.6,469.3h17.1v17.1h-17.1V469.3z"/>
	<path class="st2" d="M187.7,469.3h17.1v17.1h-17.1V469.3z"/>
	<path class="st2" d="M187.7,435.2h17.1v17.1h-17.1V435.2z"/>
</g>
</svg>
