<svg xmlns="http://www.w3.org/2000/svg" viewBox="0 0 592.4679 468.125"><defs><style>.ff55ba54-c38c-4e3c-a6ac-b0bbf22d807c{fill:#eaf4ff;}.a3d815ab-9612-49dd-9907-728fd7539b6d,.a54bd658-2b5e-4bd0-874c-1c9fbe3ad563,.a6421ce4-2e86-4fcd-b7b7-62dec89dc719,.a7094dbd-7e45-4709-a586-c2279bfe02a2,.b78ab1fe-2765-4a90-8798-3aafcf05a3a6,.b9e346c2-5dc2-4d3c-ae77-966f34d2fdba,.b9ee5533-94a7-4fe3-aadf-c821e4e3d4ca,.b9fad284-7dc1-4a08-95ea-382b72507ad0,.bbb5fe5f-ae89-4d70-a611-a9419afd2a45,.f9fd760d-3d02-4657-a9d4-eb88c214f694,.fd891f11-d625-41c4-936e-1d971447e092{fill:none;}.b78ab1fe-2765-4a90-8798-3aafcf05a3a6{stroke:#c5e1f9;}.a3d815ab-9612-49dd-9907-728fd7539b6d,.a54bd658-2b5e-4bd0-874c-1c9fbe3ad563,.a633583f-d743-4a22-9a7e-a6291a5390ad,.a7094dbd-7e45-4709-a586-c2279bfe02a2,.b78ab1fe-2765-4a90-8798-3aafcf05a3a6,.b9e346c2-5dc2-4d3c-ae77-966f34d2fdba,.b9fad284-7dc1-4a08-95ea-382b72507ad0,.bbb5fe5f-ae89-4d70-a611-a9419afd2a45{stroke-miterlimit:10;}.fff3bf9c-7bbe-44b5-8f32-6a9952dec01d{fill:#3d90c9;}.f79311d1-f1bb-4308-855d-b0dcfea58d7c{fill:#3d90c9; }.a54bd658-2b5e-4bd0-874c-1c9fbe3ad563,.b9e346c2-5dc2-4d3c-ae77-966f34d2fdba,.b9fad284-7dc1-4a08-95ea-382b72507ad0,.fd891f11-d625-41c4-936e-1d971447e092{stroke:#31bef4;}.a54bd658-2b5e-4bd0-874c-1c9fbe3ad563,.a6421ce4-2e86-4fcd-b7b7-62dec89dc719,.b9ee5533-94a7-4fe3-aadf-c821e4e3d4ca,.fd891f11-d625-41c4-936e-1d971447e092{stroke-width:2px;}.b9e346c2-5dc2-4d3c-ae77-966f34d2fdba{stroke-width:5px;}.a628d780-5c98-4052-84d6-a30168af00b6{fill:#00056d;}.a633583f-d743-4a22-9a7e-a6291a5390ad{fill:#fff;}.a633583f-d743-4a22-9a7e-a6291a5390ad,.a7094dbd-7e45-4709-a586-c2279bfe02a2{stroke:#00056d;}.f5e7c34a-f005-4082-81d1-3fa1a17cdfcd{fill:#06096a;}.b432a584-6550-452e-839f-8fba5438d162{fill:#0b0b6a;}.bbb5fe5f-ae89-4d70-a611-a9419afd2a45{stroke:#0b0b6a;}.ff844525-ff28-4009-bf57-ce73c001ef5b{fill:#c5e1f9;}.a3d815ab-9612-49dd-9907-728fd7539b6d,.b9ee5533-94a7-4fe3-aadf-c821e4e3d4ca,.f9fd760d-3d02-4657-a9d4-eb88c214f694{stroke:#fff;}.a6421ce4-2e86-4fcd-b7b7-62dec89dc719,.b9ee5533-94a7-4fe3-aadf-c821e4e3d4ca,.f9fd760d-3d02-4657-a9d4-eb88c214f694,.fd891f11-d625-41c4-936e-1d971447e092{stroke-linecap:round;stroke-linejoin:round;}.bfa4e64f-05cc-457c-b3f4-140b646eedc6{fill:#31bef4;}.a6421ce4-2e86-4fcd-b7b7-62dec89dc719{stroke:#3d90c9;}</style></defs><g id="adac13b0-ea64-45a9-a792-7faf9e54bdad" data-name="Layer 9"><path class="ff55ba54-c38c-4e3c-a6ac-b0bbf22d807c" d="M449.1794,67.8056C327.9166,33.0639,199.1569,74.94,92.6331,134.6623,13.4559,177.8676-12.57,238.3614,38.1685,316.7146c29.957,47.4032,62.4867,103.65,102.3064,150.7942H423.8688c4.1346-17.0356,7.9665-34.3258,14.6773-50.2462,21.6866-51.4483,72.1937-85.7553,96.9919-135.7781C575.9949,202.2535,534.8231,95.357,449.1794,67.8056Z"/><line class="b78ab1fe-2765-4a90-8798-3aafcf05a3a6" x1="129.4853" y1="237.0821" x2="17.601" y2="237.0821"/><line class="b78ab1fe-2765-4a90-8798-3aafcf05a3a6" x1="104.9254" y1="178.4111" x2="5.321" y2="178.4111"/><line class="b78ab1fe-2765-4a90-8798-3aafcf05a3a6" x1="79.0009" y1="200.2422" x2="13.5077" y2="200.2422"/><line class="b78ab1fe-2765-4a90-8798-3aafcf05a3a6" x1="61.2632" y1="200.2422" x2="61.2632" y2="178.4111"/><line class="b78ab1fe-2765-4a90-8798-3aafcf05a3a6" x1="28.5166" y1="200.2422" x2="28.5166" y2="211.1577"/><line class="b78ab1fe-2765-4a90-8798-3aafcf05a3a6" x1="518.9218" y1="218.892" x2="592.4679" y2="218.892"/><line class="b78ab1fe-2765-4a90-8798-3aafcf05a3a6" x1="518.9218" y1="255.665" x2="592.4679" y2="255.665"/><line class="b78ab1fe-2765-4a90-8798-3aafcf05a3a6" x1="473.53" y1="237.2785" x2="579.8272" y2="237.2785"/><line class="b78ab1fe-2765-4a90-8798-3aafcf05a3a6" x1="559.7169" y1="218.892" x2="559.7169" y2="237.2785"/><line class="b78ab1fe-2765-4a90-8798-3aafcf05a3a6" x1="540.1812" y1="237.2785" x2="540.1812" y2="255.665"/><line class="b78ab1fe-2765-4a90-8798-3aafcf05a3a6" x1="533.8608" y1="218.892" x2="533.8608" y2="202.2292"/><path class="fff3bf9c-7bbe-44b5-8f32-6a9952dec01d" d="M203.3978,447.9084c-.3128,3.8751,5.8058,4.6091,9.3473,5.626,8.286,2.3792,15.7385,6.4433,23.6624,9.9822-.6878,1.0922-1.3173.3544-2.5193.5919-8.6716,1.7135-33.7194.9992-37.4508.7625-5.1435-.3263-10.268.61-15.46-.9265-.63-5.4672,1.49-10.8184,3.563-15.8514,1.6052-3.898,14.385-17.8051,15.5628-19.4312s10.6034,3.4156,12.4859,3.0662c2.2422-.4161,1.2306,2.3239,1.29,5.0606C213.9608,440.56,203.8539,442.2587,203.3978,447.9084Z"/><path class="f79311d1-f1bb-4308-855d-b0dcfea58d7c" d="M194.5672,454.5866a3.38,3.38,0,0,1-4.0181,2.018,3.83,3.83,0,0,1-1.9116-1.4778,3.3967,3.3967,0,0,1-.6545-1.8031c-.0676-2.0248,2.4424-4.1227,4.231-3.74C194.2108,450.0114,195.3621,452.6137,194.5672,454.5866Z"/><polyline class="a54bd658-2b5e-4bd0-874c-1c9fbe3ad563" points="225.311 455.403 219.595 460.956 218.529 452.47 211.36 458.547 208.98 448.698 202.447 454.827"/><path class="b9e346c2-5dc2-4d3c-ae77-966f34d2fdba" d="M237.0954,465.2212s-7.6761.5718-56.1182-.6383"/><path class="a628d780-5c98-4052-84d6-a30168af00b6" d="M322.2532,292.7016c-3.1218-2.3206-7.3974-2.176-10.9022-.8932a15.0153,15.0153,0,0,0-4.41,2.55h16.9472A7.96,7.96,0,0,0,322.2532,292.7016Z"/><path class="a628d780-5c98-4052-84d6-a30168af00b6" d="M364.6918,279.827c-6.1925,5.0745-14.9454,5.4367-22.81,4.7925-1.0214-.0836-1.0269-1.6851,0-1.601,6.8123.558,14.2864.4176,20.0388-3.1915H277.5771a16.7665,16.7665,0,0,0,7.8929,6.97c.9435.3838.5284,1.9319-.4256,1.5439a17.85,17.85,0,0,1-7.197-5.3152,22.2318,22.2318,0,0,1-2.1217-3.1987H258.0215v14.5311h46.5591a14.6675,14.6675,0,0,1,1.1538-1.0959,16.236,16.236,0,0,1,12.6058-3.8169,10.366,10.366,0,0,1,7.4212,4.9128H356.074c-.6555-1.55-1.249-3.1286-1.8388-4.7013a.8069.8069,0,0,1,.5591-.9848.8229.8229,0,0,1,.9847.5592c.6456,1.7215,1.3025,3.4432,2.0424,5.1269h21.4705V279.827Z"/><path class="f79311d1-f1bb-4308-855d-b0dcfea58d7c" d="M456.0953,286.8146c1.876,1.5674,5.0356.5967,7.06-.0874a50.5746,50.5746,0,0,0,10.13-5.0727c.9624-.5922,1.9121-1.2049,2.8554-1.8275H457.4068a16.6217,16.6217,0,0,0-1.1452,1.5623C455.2224,283.01,454.3332,285.3423,456.0953,286.8146Z"/><path class="f79311d1-f1bb-4308-855d-b0dcfea58d7c" d="M404.8506,291.0246a30.3227,30.3227,0,0,0,6.3212-5.609c1.6455-1.8372,3.1906-3.77,4.8374-5.5886H379.2919v14.5311h18.7187A49.8689,49.8689,0,0,0,404.8506,291.0246Z"/><path class="f79311d1-f1bb-4308-855d-b0dcfea58d7c" d="M502.0943,289.7219a28.0868,28.0868,0,0,0-7.3134,1.9575,40.5824,40.5824,0,0,0-5.5573,2.6787h18.3075c.3574-1.3552.41-2.7741-.5224-3.7051C505.8162,289.4623,503.65,289.5644,502.0943,289.7219Z"/><path class="f79311d1-f1bb-4308-855d-b0dcfea58d7c" d="M528.0662,279.827a42.3627,42.3627,0,0,0-.9126,4.58.8069.8069,0,0,1-.9846.5591.8245.8245,0,0,1-.5592-.9847c.2318-1.3949.4652-2.7918.8185-4.1542H478.9952c-2.4983,1.7308-5.0592,3.3737-7.706,4.8639-3.2486,1.829-6.7864,3.6683-10.4965,4.3147-2.6755.4661-5.8327.1138-7.0057-2.7287-.9193-2.2276.2867-4.6284,1.5912-6.4245l.02-.0254H418.1351c-.5338.5481-1.0517,1.115-1.5578,1.6951-3.5148,4.0287-6.753,8.4347-11.439,11.2-1.0249.6049-2.09,1.1328-3.168,1.6355h34.9549a20.4117,20.4117,0,0,1-2.0652-4.3263.8085.8085,0,0,1,.5591-.9848.8193.8193,0,0,1,.9848.5592,19.0766,19.0766,0,0,0,2.4447,4.7519h47.3421c.533-.3548,1.0718-.6936,1.6056-1.0154a42.6941,42.6941,0,0,1,8.1986-3.81,22.9381,22.9381,0,0,1,7.81-1.4873c1.8856.0438,4.0061.566,4.99,2.34a5.5691,5.5691,0,0,1,.3588,3.9726h25.8817V279.827Z"/><path class="a628d780-5c98-4052-84d6-a30168af00b6" d="M298.4325,217.5533l30.0346,11.9414c5.0051,1.99,10.1459,4.0655,14.0312,7.7958,5.61,5.386,7.74,13.3166,10.6048,20.5464s9.5552,20.0963,17.0978,21.99c-8.5622,4.6555-20.2386,2.0151-29.9729,2.4926-6.9622.3415-14.5662-.711-19.4982-5.6369-3.1022-3.0983-4.7429-7.3342-6.2044-11.4678A289.5,289.5,0,0,1,302.6268,220.43"/><path class="f79311d1-f1bb-4308-855d-b0dcfea58d7c" d="M307.5747,269.0673l-1.789-.9721L284.9675,256.783c-.632,1.163-1.4453,1.9561-1.7514,3.2438a3.2155,3.2155,0,0,0,1.2,3.5075c1.1559.6821,2.61.2694,3.9506.2053,2.9409-.14,5.6282,1.4845,8.2871,2.7488C300.1348,268.1438,303.7533,268.5614,307.5747,269.0673Z"/><path class="a633583f-d743-4a22-9a7e-a6291a5390ad" d="M277.564,195.5722,306.9406,223.85s1.5631,12.642,4.2245,11.3113,14.3055-5.1267,15.6362.0981-5.3229,6.2053-5.3229,6.2053,12.9747,6.7955,11.9766,11.0583,1.3308,5.8752-2.9941,8.5621-11.9644,3.509-11.8042,7.2566a60.433,60.433,0,0,1,0,6.0763s-41.0927-18.3256-41.0927-23.9672,3.2495-9.681-.0773-16.8337-19.4652-5.7749-19.4652-5.7749Z"/><line class="a7094dbd-7e45-4709-a586-c2279bfe02a2" x1="272.6509" y1="292.6235" x2="300.0793" y2="467.4431"/><line class="a7094dbd-7e45-4709-a586-c2279bfe02a2" x1="380.0734" y1="292.6235" x2="352.645" y2="467.4431"/><line class="a7094dbd-7e45-4709-a586-c2279bfe02a2" x1="485.5326" y1="292.6235" x2="512.961" y2="467.4431"/><path class="a633583f-d743-4a22-9a7e-a6291a5390ad" d="M243.8076,457.6186s-7.3846-6.2307-8.3076-4.0385,4.1028,8.1076,4.1028,8.1076Z"/><path class="f79311d1-f1bb-4308-855d-b0dcfea58d7c" d="M79.6331,313.8641s57.7514-151.179,130.2417-151.179c49.2218,0,72.49,29.9,72.49,29.9l-15.214,36.362-2.3128,57.2014H208.98l7.8339,41.1625-56.5583,15.0507L141.4366,329.941,96.1609,319.4585Z"/><line class="a7094dbd-7e45-4709-a586-c2279bfe02a2" x1="164.9002" y1="388.4486" x2="189.4228" y2="466.2212"/><line class="a7094dbd-7e45-4709-a586-c2279bfe02a2" x1="96.1609" y1="388.4486" x2="72.7717" y2="466.2212"/><path class="a7094dbd-7e45-4709-a586-c2279bfe02a2" d="M115.5872,290.1491c-46.141-35.5832-74.6162-24.1181-66.027-5.2225s35.7883,103.522,35.7883,103.522h99.4679s-12.1492-49.5033-48.6486-60.3134c-26.03-7.7094-53.6824-8.1076-60.1243-17.5665s-15.031-32.43-15.031-32.43"/><line class="a7094dbd-7e45-4709-a586-c2279bfe02a2" x1="199.3839" y1="215.2322" x2="208.9798" y2="286.1485"/><path class="a7094dbd-7e45-4709-a586-c2279bfe02a2" d="M184.8164,240.4411s12.5067,14.7385,20.6876,20.02"/><path class="a633583f-d743-4a22-9a7e-a6291a5390ad" d="M208.98,286.1485c5.37,41.8183,38.2572,161.6567,37.7072,166.057-.3474,2.7787-7.2324,7.66-12.2617,10.8819l-3.6061-2.2061a6.7226,6.7226,0,0,0-4.588-.9006l-2.5005.4071,5.264,5.8523a3.7777,3.7777,0,0,0,2.7072,1.2508c4.2225.1129,15.52.3417,19.9517-.2954a8.3992,8.3992,0,0,0,5.2141-2.3507,22.1537,22.1537,0,0,0,7.9705-17.0855V286.1485Z"/><path class="a7094dbd-7e45-4709-a586-c2279bfe02a2" d="M226.8349,335.5268c-.4762.2856-8.1186,8.6546-5.3924,12.0405s7.9634,4.1476,7.9634,4.1476"/><path class="a628d780-5c98-4052-84d6-a30168af00b6" d="M160.2554,342.3617c16.2152,17.4269,24.561,46.0869,24.561,46.0869H231.35L216.8137,327.311S172.1993,339.8651,160.2554,342.3617Z"/><path class="a628d780-5c98-4052-84d6-a30168af00b6" d="M264.8383,335.5268l42.4906,26.2256a15.2556,15.2556,0,0,1,.5823,25.5861l-43.0729,29.3721Z"/><path class="a628d780-5c98-4052-84d6-a30168af00b6" d="M233.2432,396.0636,194.821,430.39l19.0579,11.8684s27.4319-13.8819,27.2054-14.7948S233.2432,396.0636,233.2432,396.0636Z"/><path class="a633583f-d743-4a22-9a7e-a6291a5390ad" d="M408.0362,130.0813h0a19.3954,19.3954,0,0,1,19.3954,19.3954v98.17a19.3954,19.3954,0,0,1-19.3954,19.3954h0a0,0,0,0,1,0,0V130.0813A0,0,0,0,1,408.0362,130.0813Z" transform="translate(82.4594 -120.0593) rotate(18.1179)"/><path class="a7094dbd-7e45-4709-a586-c2279bfe02a2" d="M426.4516,203.1032h0a15.0063,15.0063,0,0,1,14.6557,11.7812l10.2791,46.7112a15.0063,15.0063,0,0,1-14.6557,18.2314H408.0362"/><path class="b9fad284-7dc1-4a08-95ea-382b72507ad0" d="M474.8185,401.6719s1.9108-45.0438,18.8755-45.574S514.3748,378.88,514.3748,378.88"/><path class="f79311d1-f1bb-4308-855d-b0dcfea58d7c" d="M506.5664,399.1042c6.59,10.6739,18.5089,22.9436,30.0728,27.805,6.1254-16.9522,1.5889-42.2894-10.2671-55.8663a25.8179,25.8179,0,0,0-9.2247-7.18C496.9965,355.4856,500.7116,389.6208,506.5664,399.1042Z"/><path class="f5e7c34a-f005-4082-81d1-3fa1a17cdfcd" d="M406.1979,371.2621c.0451,9.8926,3.02,23.0507,8.8028,31.0774,11.0931-8.8887,18.46-27.8043,16.0646-41.8161a20.3594,20.3594,0,0,0-3.2549-8.6252C417.6951,337.9744,406.1578,362.4727,406.1979,371.2621Z"/><path class="b432a584-6550-452e-839f-8fba5438d162" d="M512.0661,345.257c4.2059,6.8126,11.8133,14.6438,19.194,17.7465,3.9095-10.82,1.0141-26.9913-6.553-35.6568a16.4787,16.4787,0,0,0-5.8877-4.5827C505.958,317.4173,508.3292,339.2042,512.0661,345.257Z"/><path class="f79311d1-f1bb-4308-855d-b0dcfea58d7c" d="M378.2472,405.1264c-1.7329,13.3569-.1042,31.6514,6.2432,43.5308,16.58-9.9827,29.95-34.171,29.259-53.5123-.1507-4.2187,2.6-17.33-1.2138-19.14C399.8124,369.969,379.7867,393.2592,378.2472,405.1264Z"/><path class="bbb5fe5f-ae89-4d70-a611-a9419afd2a45" d="M468.2936,401.6719c.4713-18.5347,3.6082-42.7711,9.2844-60.4216,1.9128-5.9481,4.1789-11.9233,8.1272-16.7658s9.87-8.4407,16.1134-8.195,12.3875,5.1633,12.7132,11.4028"/><path class="bbb5fe5f-ae89-4d70-a611-a9419afd2a45" d="M422.3105,349.69s19.3962-34.0562,30.6856-20.0627,6.322,70.4911,6.322,70.4911"/><path class="b9fad284-7dc1-4a08-95ea-382b72507ad0" d="M401.6186,392.138s20.6919-38.8353,36.9621-26.1913c10.02,7.7872,7.9432,35.7252,7.9432,35.7252"/><path class="f79311d1-f1bb-4308-855d-b0dcfea58d7c" d="M506.2491,331.1139s-42.8221-9.2652-35.5084-26.6715S504.6015,308.6217,506.2491,331.1139Z"/><path class="b9fad284-7dc1-4a08-95ea-382b72507ad0" d="M474.8148,303.6942c-4.1252-3.8841-11.3825-1.9211-14.8931,2.5262s-4.2583,10.4128-4.7681,16.0558a444.4044,444.4044,0,0,0,.4373,84.4843"/><polygon class="ff844525-ff28-4009-bf57-ce73c001ef5b" points="486.339 467.509 437.853 467.509 433.154 409.984 491.709 409.984 486.339 467.509"/><polygon class="ff55ba54-c38c-4e3c-a6ac-b0bbf22d807c" points="433.058 409.984 437.757 467.509 450.714 467.509 446.015 409.984 433.058 409.984"/><polygon class="ff844525-ff28-4009-bf57-ce73c001ef5b" points="494.687 413.813 429.305 413.813 422.968 398.08 501.928 398.08 494.687 413.813"/><polygon class="ff55ba54-c38c-4e3c-a6ac-b0bbf22d807c" points="422.839 398.08 429.176 413.813 446.647 413.813 440.311 398.08 422.839 398.08"/><path class="a3d815ab-9612-49dd-9907-728fd7539b6d" d="M507.2621,362.5515s22.1519,35.9085,29.3771,64.3577"/><path class="a3d815ab-9612-49dd-9907-728fd7539b6d" d="M412.5356,376.0052s-23.9495,39.3081-28.0452,72.652"/><path class="a3d815ab-9612-49dd-9907-728fd7539b6d" d="M472.3367,301.6139s24.7463,14.9879,33.9124,29.5"/><path class="a3d815ab-9612-49dd-9907-728fd7539b6d" d="M397.3,405.9469c.0869-.1991-22.7758,10.1245-22.7758,10.1245"/><line class="a3d815ab-9612-49dd-9907-728fd7539b6d" x1="520.6458" y1="386.8256" x2="514.3748" y2="406.7605"/><line class="a3d815ab-9612-49dd-9907-728fd7539b6d" x1="529.4533" y1="405.944" x2="543.8644" y2="409.984"/><line class="fd891f11-d625-41c4-936e-1d971447e092" x1="310.5065" y1="258.0174" x2="313.2216" y2="266.1628"/><circle class="ff844525-ff28-4009-bf57-ce73c001ef5b" cx="300.0793" cy="246.6442" r="8.862"/><rect class="bfa4e64f-05cc-457c-b3f4-140b646eedc6" x="147.4498" y="93.9098" width="66.5053" height="20.9885" rx="5.1503"/><line class="f9fd760d-3d02-4657-a9d4-eb88c214f694" x1="176.8404" y1="107.3189" x2="182.8375" y2="101.3218"/><line class="f9fd760d-3d02-4657-a9d4-eb88c214f694" x1="176.8404" y1="101.3218" x2="182.8375" y2="107.3189"/><rect class="bfa4e64f-05cc-457c-b3f4-140b646eedc6" x="258.8087" y="94.3012" width="108.8259" height="34.3445" rx="8.4276"/><line class="b9ee5533-94a7-4fe3-aadf-c821e4e3d4ca" x1="306.9019" y1="116.2432" x2="316.7153" y2="106.4298"/><line class="b9ee5533-94a7-4fe3-aadf-c821e4e3d4ca" x1="306.9019" y1="106.4298" x2="316.7153" y2="116.2432"/><rect class="bfa4e64f-05cc-457c-b3f4-140b646eedc6" x="224.0381" width="63.871" height="20.1572" rx="4.9463"/><line class="b9ee5533-94a7-4fe3-aadf-c821e4e3d4ca" x1="252.2645" y1="12.878" x2="258.0241" y2="7.1184"/><line class="b9ee5533-94a7-4fe3-aadf-c821e4e3d4ca" x1="252.2645" y1="7.1184" x2="258.0241" y2="12.878"/><rect class="bfa4e64f-05cc-457c-b3f4-140b646eedc6" x="346.8336" y="42.9481" width="64.9165" height="20.4871" rx="5.0272"/><line class="b9ee5533-94a7-4fe3-aadf-c821e4e3d4ca" x1="375.5221" y1="56.0369" x2="381.3759" y2="50.1831"/><line class="b9ee5533-94a7-4fe3-aadf-c821e4e3d4ca" x1="375.5221" y1="50.1831" x2="381.3759" y2="56.0369"/><rect class="bfa4e64f-05cc-457c-b3f4-140b646eedc6" x="342.3112" y="147.5588" width="48.0961" height="15.1787" rx="3.7246"/><line class="f9fd760d-3d02-4657-a9d4-eb88c214f694" x1="363.5662" y1="157.2562" x2="367.9033" y2="152.9191"/><line class="f9fd760d-3d02-4657-a9d4-eb88c214f694" x1="363.5662" y1="152.9191" x2="367.9033" y2="157.2562"/><rect class="bfa4e64f-05cc-457c-b3f4-140b646eedc6" x="262.3171" y="174.1938" width="48.0961" height="15.1787" rx="3.7246"/><line class="f9fd760d-3d02-4657-a9d4-eb88c214f694" x1="283.5721" y1="183.8912" x2="287.9091" y2="179.5541"/><line class="f9fd760d-3d02-4657-a9d4-eb88c214f694" x1="283.5721" y1="179.5541" x2="287.9091" y2="183.8912"/><circle class="a6421ce4-2e86-4fcd-b7b7-62dec89dc719" cx="480.056" cy="157.2562" r="8.0304"/><line class="a6421ce4-2e86-4fcd-b7b7-62dec89dc719" x1="485.7343" y1="151.5778" x2="474.3776" y2="162.9345"/><circle class="a6421ce4-2e86-4fcd-b7b7-62dec89dc719" cx="233.9127" cy="139.3081" r="13.7489"/><line class="a6421ce4-2e86-4fcd-b7b7-62dec89dc719" x1="243.6346" y1="129.5862" x2="224.1907" y2="149.0301"/><circle class="a6421ce4-2e86-4fcd-b7b7-62dec89dc719" cx="406.1978" cy="108.5428" r="17.8356"/><line class="a6421ce4-2e86-4fcd-b7b7-62dec89dc719" x1="418.8095" y1="95.9311" x2="393.5861" y2="121.1545"/><circle class="a6421ce4-2e86-4fcd-b7b7-62dec89dc719" cx="249.1859" cy="65.2406" r="9.0524"/><line class="a6421ce4-2e86-4fcd-b7b7-62dec89dc719" x1="255.5869" y1="58.8396" x2="242.7849" y2="71.6417"/><circle class="a6421ce4-2e86-4fcd-b7b7-62dec89dc719" cx="131.2274" cy="145.2269" r="12.3502"/><line class="a6421ce4-2e86-4fcd-b7b7-62dec89dc719" x1="139.9603" y1="136.4941" x2="122.4945" y2="153.9598"/><path class="fff3bf9c-7bbe-44b5-8f32-6a9952dec01d" d="M285.6923,442.5388a13.8624,13.8624,0,0,0,1.3355,5.37c1.8641,3.4117,5.8058,4.6091,9.3474,5.626,8.2859,2.3792,15.7385,6.4433,23.6624,9.9822-.6878,1.0922-1.3173.3544-2.5193.5919-8.6717,1.7135-33.7195.9992-37.4508.7625-5.1435-.3263-10.268.61-15.46-.9265-.63-5.4672,1.49-10.8184,3.563-15.8514l4.8159-11.6941a25.9781,25.9781,0,0,1,2.7436-5.4214,7.85,7.85,0,0,1,4.6864-3.3163c2.2422-.4161,5.2193.9,5.2787,3.6371C285.7766,435.0692,285.3353,438.7453,285.6923,442.5388Z"/><path class="f79311d1-f1bb-4308-855d-b0dcfea58d7c" d="M278.1972,454.5866a3.38,3.38,0,0,1-4.0181,2.018,3.83,3.83,0,0,1-1.9115-1.4778,3.3976,3.3976,0,0,1-.6546-1.8031c-.0675-2.0248,2.4424-4.1227,4.2311-3.74C277.8409,450.0114,278.9922,452.6137,278.1972,454.5866Z"/><polyline class="a54bd658-2b5e-4bd0-874c-1c9fbe3ad563" points="308.941 455.403 303.225 460.956 302.159 452.47 294.99 458.547 292.61 448.698 286.077 454.827"/><path class="b9e346c2-5dc2-4d3c-ae77-966f34d2fdba" d="M320.7254,465.2212s-7.6761.9584-56.1182-.2517"/><polygon class="a628d780-5c98-4052-84d6-a30168af00b6" points="308.941 380.183 289.705 433.699 271.612 433.699 272.366 396.064 308.941 380.183"/><line class="a7094dbd-7e45-4709-a586-c2279bfe02a2" y1="467.4431" x2="544.7311" y2="467.4431"/><circle class="a628d780-5c98-4052-84d6-a30168af00b6" cx="308.4543" cy="263.6038" r="1.5137"/></g></svg>