<?xml version="1.0" encoding="utf-8"?>
<!-- Generator: Adobe Illustrator 23.0.1, SVG Export Plug-In . SVG Version: 6.00 Build 0)  -->
<svg version="1.1" xmlns="http://www.w3.org/2000/svg" xmlns:xlink="http://www.w3.org/1999/xlink" x="0px" y="0px"
	 viewBox="0 0 1095.59 795.96" style="enable-background:new 0 0 1095.59 795.96;" xml:space="preserve">
<style type="text/css">
	.st0{fill:#C5E1F9;}
	.st1{fill:#EAF4FF;}
	.st2{fill:#00056D;}
	.st3{fill:#FFFFFF;}
	.st4{fill:#0561FC;}
	.st5{opacity:0.38;}
	.st6{fill:none;stroke:#00056D;stroke-width:3;stroke-linecap:round;stroke-linejoin:round;stroke-miterlimit:10;}
	.st7{fill:#3d90c9;}
	.st8{opacity:0.38;fill:#00056D;}
	.st9{fill:#FFFFFF;stroke:#00056D;stroke-width:3;stroke-miterlimit:10;}
	.st10{fill:#00056D;stroke:#00056D;stroke-width:3;stroke-miterlimit:10;}
	.st11{fill:none;stroke:#00056D;stroke-width:3;stroke-linecap:round;stroke-miterlimit:10;}
	.st12{fill:none;stroke:#FFFFFF;stroke-width:3;stroke-miterlimit:10;}
	.st13{fill:#248CF8;}
	.st14{fill:none;stroke:#00056D;stroke-width:3;stroke-miterlimit:10;}
	.st15{fill:none;stroke:#00056D;stroke-miterlimit:10;}
	.st16{fill:none;stroke:#FFFFFF;stroke-width:3;stroke-linecap:round;stroke-miterlimit:10;}
	.st17{fill:none;stroke:#FFFFFF;stroke-width:3;stroke-linecap:round;stroke-miterlimit:10;stroke-dasharray:8.2735,8.2735;}
	.st18{fill:none;stroke:#00056D;stroke-width:3;stroke-linecap:round;stroke-miterlimit:10;stroke-dasharray:8;}
	.st19{fill:none;stroke:#00056D;stroke-width:3;stroke-linecap:round;stroke-miterlimit:10;stroke-dasharray:12;}
	.st20{fill:#248CF8;stroke:#248CF8;stroke-width:5;stroke-miterlimit:10;}
	.st21{fill:#248CF8;stroke:#248CF8;stroke-width:5;stroke-linecap:round;stroke-linejoin:round;stroke-miterlimit:10;}
	.st22{fill:#0561FC;stroke:#0561FC;stroke-width:5;stroke-miterlimit:10;}
	.st23{fill:#3d90c9;stroke:#3d90c9;stroke-width:5;stroke-miterlimit:10;}
	.st24{fill:#0561FC;stroke:#0561FC;stroke-width:5;stroke-linecap:round;stroke-linejoin:round;stroke-miterlimit:10;}
	.st25{fill:#3d90c9;stroke:#3d90c9;stroke-width:5;stroke-linecap:round;stroke-linejoin:round;stroke-miterlimit:10;}
</style>
<g id="Layer_6">
	<path class="st0" d="M486.47,121.51c-38.25,10.5-77.28,18.12-116.67,22.75c-64.77,7.62-131.76,7.5-192.39,31.53
		S62.67,256.93,68.08,321.92c3.66,43.92,32.72,80.8,57.3,117.38c32.75,48.73,59.59,102.37,70.73,160.01
		c5.57,28.8,7.21,58.48,16.14,86.42c23.12,72.33,103.65,124.75,177.38,106.61c44.83-11.03,80.88-43.96,111.29-78.7
		s57.82-72.93,94.9-100.44c36.64-27.19,73.21-36.66,118.82-37.59c50.94-1.04,150.64,94.45,241.47-129.86
		c18.59-45.91,34.07-104.14-6.71-132.26c-40.78-28.12-87.43-57.57-99.48-105.61c-5.07-20.22-3.18-41.45-4.94-62.22
		c-4.54-53.42-35.82-104.82-83.26-129.78C714.28-9.07,651.82-4.74,610.71,29.67C567.89,65.5,543.34,105.89,486.47,121.51z"/>
	<ellipse class="st1" cx="509.89" cy="684.31" rx="214.75" ry="26.92"/>
	<path class="st1" d="M944.47,477.12c-17.57-12.74-35.14-25.48-52.72-38.22c-48.74-35.34-98.95-72.29-128.61-124.68
		c-38.81-68.55-34.72-159.16,10.13-223.92c15.23-22,35.38-41.5,60.39-51.04c6.89-2.63,14.36-4.49,21.61-3.13
		c19.6,3.68,27.26,26.89,33.55,45.81c8.09,24.35,20.01,47.65,36.86,67c21.65,24.87,50.41,42.21,76.54,62.32
		c43.77,33.68,82.36,78.92,91.65,133.37c9.28,54.45-19.42,117.6-72.53,132.78c-42.62,12.18-87.15-7.64-127.04-26.98"/>
</g>
<g id="Layer_13">
	<path class="st0" d="M980.07,176.6c-14.96,2.91-27.85,12.25-39.12,22.51c-7.75,7.06-14.97,14.7-21.61,22.81
		c2.12,1.62,3.95,3.77,5.24,5.74c2.01,3.05,3.7,7.8-0.7,9.63c-4.73,1.97-9.85-0.56-14.71-1.95c-17.3,24.75-29.56,53.03-35.52,82.63
		c-8.75,43.48-4.15,88.37-5.03,132.71c-0.15,7.37-0.47,14.76-1.03,22.14c14.66-20.61,27.83-42.33,34.65-66.91
		c13.82-49.84,9.3-103.71,33.52-150.69c9.11-17.68,20.94-34.45,34.94-48.6c10.81-10.93,24.13-21.51,39.43-24.89
		C1001.5,176.33,990.24,174.62,980.07,176.6z"/>
	<path class="st0" d="M1020.17,191.81c-1.96-3.29-4.52-6.06-7.5-8.33c-20.3,3.4-37.29,20.11-49.92,35.21
		c-13.1,15.66-24.34,33.48-31.85,52.51c-9.68,24.53-12.98,50.88-16.26,76.86c-3.12,24.65-6.02,50.04-15.12,73.35
		c-7.85,20.09-19.66,38.29-32.29,55.74c-1.09,12.11-2.88,24.16-5.71,35.98c-3.09,12.91-19.66,38.52-14.38,50.35
		c13.38-3.04,25.46-19.67,34.12-29.96c19.19-22.79,39.5-48.77,37.73-78.51c-0.48-8.06-2.46-16.84,1.77-23.72
		c2.39-3.87,6.4-6.44,9.34-9.91c13.89-16.41-1-44.15,10.79-62.14c10.98-16.75,40.12-16.94,46.31-35.99
		c3.49-10.75-2.47-21.03-7.62-31.65c-3.76-0.06-7.51-0.24-11.24-0.73c-0.82-0.11-1.65-1.22-0.79-1.9c2.55-2.01,5.34-4.16,8.3-5.88
		c-1-2.71-1.79-5.46-2.19-8.26c-3.39-23.52,19.56-41.31,38.57-55.55c4.24-3.18,8.62-6.72,10.36-11.73
		C1024.41,202.37,1022.98,196.52,1020.17,191.81z"/>
	<path class="st0" d="M843.35,130.63c-2.68,11.57-3.37,23.49-5.98,35.03c-2.46,10.87-7.92,20.75-11.25,31.33
		c-3.62,11.48-4.39,23.48-4.16,35.44c0.32,17.08,0.86,34.31,1.88,51.37c1.45,24.15,5.17,54.03,22.47,72.42
		c-0.44-26.35-5.75-59.5-6.39-64.95c-2.58-22.03-1.92-45.78,10.14-64.4c10.48-16.18,29.83-31.19,24.81-49.8
		c-2.18-8.07-8.8-14.33-11.19-22.34c-3.33-11.16,2.07-23.84-2.47-34.56c-2.22-5.26-6.5-8.82-11.65-10.78
		C847.12,116.37,845.02,123.43,843.35,130.63z"/>
	<path class="st0" d="M829.44,330.59c-5.14-15.42-6.98-31.83-7.9-47.99c-1.03-18.15-1.92-36.61-1.85-54.78
		c0.04-11.92,1.48-23.61,5.46-34.89c4.08-11.57,9.57-22.3,11.2-34.6c2.26-17.05,5.76-33.49,11.2-49.59
		c-8.75-2.53-19.41-0.77-26.79,4.96c-12.46,9.69-17.33,26.14-19.87,41.71c-8.24,50.51,0.62,102.3,14.05,151.68
		c2.78,10.23,10.89,81.47,21.19,82.63c7.84,0.88,10.23-12.87,10.21-30.39C838.45,351.49,833.03,341.35,829.44,330.59z"/>
	<path class="st1" d="M322.36,518.46c-1.67-18.21-9.25-36.02-21.92-49.29c-3.89-4.08-8.26-7.83-11.15-12.67
		c-6.27-10.54-4.41-24.23-9.68-35.3c-7.27-15.27-25.43-21.26-41.5-26.54c-15.12-4.97-31.89-12.61-37.29-27.16
		c-22.97-12.21-49.37-18.65-73.17-28.99c-13.19-5.73-26.56-12.73-36.78-23.04c-7.76-7.84-13.86-17.25-18.73-27.11
		c-11.39-23.09-16.81-49.01-18.61-74.57c-1.86-26.44,0.18-53.71,7.95-79.14c2.78-9.09,6.39-18.16,11.11-26.54
		c-5.43,0.56-10.77,2-15.61,4.34c-19.27,9.29-31.69,28.62-40.18,48.26c-2.45,5.67-4.63,11.48-6.54,17.39
		c4.06,2.76,7.97,5.96,10.98,9.85c4.94,6.4,5.15,15.91-2.53,20.52c-4.78,2.87-10.69,2.15-15.68-0.23c-5.91,37.49-0.8,76.5,18.34,109
		c9.57,16.24,22.86,32.31,21.85,51.13c-0.31,5.76-1.99,11.38-2.39,17.13c-1.91,27.79,26.53,49.07,54.03,53.56s55.63-1.96,83.42-0.14
		c21.46,1.41,45.68,10.75,51.7,31.4c4.7,16.1-3.4,33.83,1.17,49.96c5.3,18.71,63.29,65.34,77.79,53.55
		C321.12,563.94,323.67,532.71,322.36,518.46z"/>
	<path class="st1" d="M76.89,107.85c-7.39,12.46-12.12,26.76-15.2,40.48c-5.75,25.56-6.45,52.39-3.21,78.35
		c3.03,24.37,9.6,49.3,22.67,70.32c5.97,9.61,13.42,18.1,22.79,24.51c13.76,9.41,29.29,15.72,44.89,21.36
		c16.98,6.14,34.58,11.77,50.71,19.88c-1.58-8.61,0.42-17.9-2.9-26.01c-6.55-15.97-28.07-17.69-45.33-17.15
		c-6.67,0.21-13.74,0.27-19.51-3.07c-13.64-7.9-11.49-28.4-4.71-42.62c6.78-14.23,16.64-29.2,12.52-44.41
		c-3.34-12.32-15.04-20.56-20.36-32.16c-9.93-21.68,4.54-49.05-6.2-70.34C106.46,113.96,91.71,107.61,76.89,107.85z"/>
	<path class="st1" d="M280.46,231.7c-15.51-30.01-20.94-65.13-15.22-98.43c4.32-25.14,14.8-50.29,9.76-75.3
		c-0.85-4.24-2.2-8.49-4.88-11.88c-2.91-3.7-7.13-5.95-11.74-6.9c-5.39,12.04-9.64,24.56-12.46,37.54
		c-8.94,41.18-3.05,84.42,9.54,124.19c12.94,40.84,31.41,81.94,30.29,125.63c-0.06,2.36-3.74,2.37-3.67,0
		c0.66-25.53-5.78-50.5-13.46-74.65c-6.67-20.97-14.67-41.56-20.53-62.78c-5.66-20.48-9.19-41.9-9.97-63.14
		c-1.13-30.46,4.77-59.87,16.63-87.26c-3.4-0.2-6.87,0.25-10.07,1.32c-8.81,2.95-15.85,9.65-21.78,16.81
		c-5.58,6.74-10.39,13.98-14.47,21.61c4.96,9.68,9.56,19.57,9.83,30.6c0.04,1.45-1.57,2.21-2.76,1.59
		c-5.74-2.98-10.94-6.94-16.63-9.84c-9.5,28.42-10.87,60.02-6.01,89.81c7.71,47.2,35.69,87.48,44.08,132.99
		c8.23,44.68,67.77,15.48,71.5-19.33C311.23,278.04,292.57,255.14,280.46,231.7z"/>
</g>
<g id="Layer_10">
</g>
<g id="Layer_14">
</g>
<g id="Layer_12">
	<path class="st2" d="M520.11,475.07c-0.7,1.27-2.15,1.07-2.91,0.24c-4.66,17.86-8.72,39.23-12.19,64.09
		c-9,64.57-10.45,129.98-10.46,130.63l3,0.06c0.01-0.65,1.46-65.91,10.44-130.3c3.58-25.66,7.83-47.65,12.71-65.82
		C520.5,474.34,520.31,474.71,520.11,475.07z"/>
	<path class="st2" d="M603.29,458c-10.89-33.46-24.26-50.35-39.97-50.35c-13.77,0-25.67,11.96-35.65,35.69
		c1.3-0.41,2.96,0.52,2.35,2.11c-0.85,2.19-1.69,4.37-2.51,6.56c0.06-0.12,0.12-0.23,0.17-0.35c9.99-27.06,21.98-41.02,35.63-41.02
		c14.29,0,26.86,16.66,37.26,48.84C600.62,457.96,602.22,457.47,603.29,458z"/>
	<path class="st2" d="M620.69,539.4c-3.93-27.24-8.5-50.29-13.71-69.13c-0.01-0.01-0.01-0.01-0.02-0.01
		c-0.76-0.56-1.4-1.23-2.06-1.88c-0.01,0.1-0.03,0.2-0.04,0.3c-0.06,0.66-0.48,1.26-1.03,1.59c5.28,18.87,9.94,42.1,13.89,69.54
		c9.28,64.4,11.36,129.66,11.38,130.31l3-0.09C632.07,669.37,629.99,603.96,620.69,539.4z"/>
	<path class="st3" d="M308.77,515.03c-22.87-9.01-44.87-21.67-60.83-40.36c-13.66-16-22.29-35.65-29.36-55.47
		c-13.87-38.89-22.48-80.81-15.57-121.52c6.91-40.71,31.49-80.01,69.34-96.52c14.15-6.17,29.51-9.01,44.83-10.91
		c15.32-1.91,31.31-2.86,45.81,2.47c16.16,5.95,28.64,19.08,38.64,33.1c29.07,40.78,41.54,91.37,45.2,141.32
		c1.57,21.36,1.63,42.92-1.58,64.09c-4.75,31.3-17.48,72.71-40.74,95.64c-10.13,9.99-26.06,5.2-38.98,3.29
		C346.1,527.3,327.02,522.22,308.77,515.03z"/>
</g>
<g id="Layer_7">
	<path class="st4" d="M469.77,571.81c15.53-10.49,31.65-19.95,49.33-26.44c-8.79-17.22-16.07-35.22-21.61-53.76
		c-0.39-1.3-1.15-5.34-2.1-10.13H306.12c1.7,49.5,87.1,51.61,103,50.97c10.8-0.43,28.87,9.43,36.84,16.73
		C453.96,556.52,461.87,564.12,469.77,571.81z"/>
	<path class="st4" d="M614.44,666.44c1.34-1.4,2.65-2.84,3.97-4.3c-40.98-30.01-74.89-69.68-98.3-114.77
		c-17.46,6.36-33.4,15.66-48.74,26c41.25,40.2,82.43,82.48,135.73,101.69c0.03-0.03,0.06-0.06,0.1-0.08
		c1.55-1.05,3.03-2.18,4.46-3.36c-0.96,0.31-1.95-1.16-1.07-1.88C611.9,668.66,613.17,667.55,614.44,666.44z"/>
	<g class="st5">
		<path class="st2" d="M474.39,576.36c8.26,8.06,16.53,16.18,24.9,24.16c12.49-6.29,26.33-13.4,40.08-20.69
			c-8.37-12.42-15.92-25.4-22.53-38.84L474.39,576.36z"/>
	</g>
	<path class="st4" d="M489.07,481.48c-0.6,0.29-1.2,0.57-1.79,0.87c-3.48,1.73-7.5,5.32-5.61,8.72c0.74,1.33,2.2,2.07,3.58,2.71
		c12.42,5.74,25.53,9.98,38.95,12.63l-96.87,80.71c0,0-0.89,18.16,10.69,19.34c1.89,0.19,168.44-80.86,170.2-96.68
		c1.08-9.69-7.53-20.98-14.37-28.29H489.07z"/>
	<path class="st6" d="M362.8,509.71c3,1.67,66.01,10.55,75.72,16.65c9.71,6.11,136.05,130.81,166.22,140.8"/>
	<path class="st7" d="M276.37,205.5c0,0,67.67,23.66,86.42,29.08c18.75,5.42,43.14,12.45,43.14,12.45l45.01-72.11l127.57,31.52
		l-32.12,152.43l22.55,86.9l-269.38,0c0,0-4.43-59.25-25.61-86.9c-12.25-15.99-101.27-94.43-125.93-132.45
		c-8.92-13.75-7-31.86,4.6-43.44c17.43-17.4,42.72-41.57,66.36-46.43C227.15,175.08,239.89,191.91,276.37,205.5z"/>
	<path class="st8" d="M489.07,481.48H306.12c0.94,27.44,27.62,40.32,53.91,46.23c1.67-1.23,3.33-2.5,4.95-3.4
		c3.17-1.77,6.43-3.39,9.75-4.88c6.76-3.03,13.78-5.64,20.92-7.67c14.83-4.22,30.24-6.64,45.54-8.37
		c13.5-1.52,27.71-3.35,41.32-2.35c2.8,0.2,5.61,0.58,8.32,1.31c1.48,0.4,4.16,2.21,5.72,1.85c1.08-0.25,2.79-1.93,4.02-2.97
		c-0.16-0.48-0.33-0.96-0.49-1.45c0.57,0.2,1.15,0.38,1.72,0.57c1.52-0.97,3.09-1.86,4.7-2.67c17.08-8.61,37.83-10.57,56.67-9.1
		c7.72,0.6,15.92,1.63,23.14,4.54c5.21,2.1,10.25,4.84,15.17,7.53c1.1,0.6,3.53,1.83,6.38,3.43c-1.78-8.17-8.47-16.7-14.01-22.61
		H489.07z"/>
	<path class="st0" d="M582.17,667.24c8.03,3.76,16.05,7.52,24.08,11.27c0.22,0.1,0.45,0.21,0.69,0.16c0.25-0.05,0.43-0.27,0.59-0.47
		c4.22-5.28,8.45-10.57,12.67-15.85c0.66-0.83,1.36-1.89,0.94-2.86c-0.22-0.52-0.71-0.86-1.18-1.17c-4.83-3.25-9.66-6.5-14.49-9.75
		c-4.19-2.82-7.39-6.96-12.13-3.7C586.24,649.76,581.83,658.63,582.17,667.24z"/>
	<g>
		<path class="st3" d="M435.59,346.05l2.82-6.41c-7.55-3.33-16.41,0.11-19.74,7.66c-3.33,7.56,0.11,16.41,7.66,19.74l2.82-6.41
			c-4.02-1.77-5.85-6.49-4.08-10.51S431.57,344.28,435.59,346.05z"/>
		<path class="st3" d="M466.62,238.02l-5.61-4.18c-1.27,1.71-3.13,2.82-5.24,3.12c-2.1,0.31-4.21-0.22-5.92-1.5
			c-1.71-1.27-2.82-3.13-3.12-5.24c-0.31-2.11,0.22-4.21,1.5-5.92l-5.61-4.18c-2.39,3.21-3.39,7.15-2.81,11.11s2.66,7.45,5.87,9.84
			c2.61,1.95,5.72,2.97,8.92,2.97c0.73,0,1.46-0.05,2.19-0.16C460.73,243.31,464.23,241.22,466.62,238.02z"/>
		<path class="st3" d="M441.2,442.03c2.13,1.08,4.43,1.62,6.75,1.62c1.57,0,3.14-0.25,4.68-0.75c3.8-1.25,6.89-3.9,8.7-7.46
			l-6.24-3.16c-0.96,1.9-2.61,3.31-4.63,3.98c-2.03,0.66-4.19,0.5-6.09-0.46c-3.92-1.99-5.5-6.79-3.51-10.72l-6.24-3.16
			c-1.81,3.57-2.12,7.63-0.87,11.43S437.63,440.22,441.2,442.03z"/>
		<path class="st3" d="M458.12,272.32c0,4.4-3.58,7.97-7.97,7.97c0,0,0,0,0,0c-4.4,0-7.97-3.58-7.97-7.98l-7,0
			c0,8.26,6.71,14.98,14.97,14.98c0,0,0,0,0.01,0c8.25,0,14.97-6.71,14.97-14.97L458.12,272.32z"/>
		<path class="st3" d="M244.1,323.14c-2.49-3.13-6.05-5.1-10.03-5.55l-0.36,3.19c4.78,4.63,9.35,9.04,13.57,13.14
			C247.66,330.03,246.54,326.21,244.1,323.14z"/>
		<path class="st3" d="M208.22,259.57c-4.93,6.62-3.56,16.02,3.06,20.96c2.68,2,5.82,2.96,8.93,2.96c4.57,0,9.09-2.08,12.02-6.02
			l-5.61-4.18c-2.63,3.53-7.63,4.26-11.16,1.63c-3.53-2.63-4.25-7.63-1.63-11.16L208.22,259.57z"/>
		<path class="st3" d="M292.38,284.66c1.99-0.77,4.15-0.72,6.1,0.14l2.82-6.41c-3.66-1.61-7.73-1.71-11.46-0.26
			c-3.73,1.45-6.67,4.26-8.28,7.92c-1.61,3.66-1.7,7.73-0.26,11.46s4.26,6.67,7.92,8.28l2.82-6.41c-1.95-0.86-3.45-2.43-4.22-4.41
			c-0.77-1.99-0.72-4.15,0.14-6.1C288.83,286.93,290.4,285.43,292.38,284.66z"/>
		<path class="st3" d="M226.59,198.14c0,4.4-3.58,7.97-7.97,7.97c0,0,0,0,0,0c-4.4,0-7.97-3.58-7.97-7.98l-7,0
			c0,8.26,6.71,14.98,14.97,14.98c0,0,0,0,0.01,0c8.25,0,14.97-6.71,14.97-14.97L226.59,198.14z"/>
		<path class="st3" d="M281.67,223.29c-1.81,3.57-2.12,7.63-0.87,11.43c1.25,3.8,3.9,6.89,7.46,8.7c2.13,1.08,4.43,1.62,6.75,1.62
			c1.57,0,3.14-0.25,4.68-0.75c3.8-1.25,6.89-3.9,8.7-7.46l-6.25-3.16c-0.96,1.9-2.61,3.31-4.63,3.98c-2.03,0.66-4.19,0.5-6.09-0.46
			c-1.9-0.96-3.31-2.61-3.97-4.63c-0.66-2.02-0.5-4.19,0.46-6.09L281.67,223.29z"/>
		<path class="st3" d="M517.01,278.96c-2.48,3.14-3.59,7.05-3.13,11.03s2.45,7.53,5.58,10.01c2.67,2.11,5.91,3.23,9.26,3.23
			c0.59,0,1.18-0.03,1.77-0.1c3.97-0.46,7.53-2.45,10.01-5.58l-5.49-4.34c-2.73,3.45-7.75,4.03-11.2,1.31
			c-1.67-1.32-2.73-3.21-2.97-5.33s0.34-4.2,1.67-5.87L517.01,278.96z"/>
		<path class="st3" d="M526.2,194.71c-0.63,2.66-0.54,5.44,0.33,8.1c1.25,3.8,3.9,6.89,7.46,8.7c2.13,1.08,4.43,1.62,6.75,1.62
			c1.57,0,3.14-0.25,4.68-0.75c3.8-1.25,6.89-3.9,8.7-7.46l-6.25-3.16c-0.96,1.9-2.61,3.31-4.63,3.97c-2.02,0.66-4.19,0.5-6.09-0.46
			c-1.9-0.96-3.31-2.61-3.97-4.63c-0.46-1.39-0.51-2.85-0.19-4.24L526.2,194.71z"/>
		<path class="st3" d="M557.64,245.18l2.82-6.41c-7.56-3.33-16.41,0.11-19.74,7.66c-1.61,3.66-1.7,7.73-0.26,11.46
			c1.45,3.73,4.26,6.67,7.92,8.28l2.82-6.41c-1.95-0.86-3.45-2.43-4.22-4.41c-0.77-1.99-0.72-4.15,0.14-6.1
			C548.9,245.24,553.61,243.4,557.64,245.18z"/>
		<path class="st3" d="M513.72,341.64v-7c-8.26,0-14.97,6.72-14.97,14.97s6.72,14.97,14.97,14.97v-7c-4.4,0-7.97-3.58-7.97-7.97
			S509.33,341.64,513.72,341.64z"/>
		<path class="st3" d="M480.46,400.61c2.68,2,5.82,2.96,8.93,2.96c4.57,0,9.09-2.08,12.02-6.02l-5.61-4.18
			c-2.63,3.53-7.63,4.26-11.16,1.63c-3.52-2.63-4.25-7.63-1.63-11.16l-5.61-4.18C472.47,386.27,473.84,395.67,480.46,400.61z"/>
		<path class="st3" d="M406.94,319.13c2.13,1.08,4.43,1.62,6.75,1.62c1.57,0,3.14-0.25,4.68-0.75c3.8-1.25,6.89-3.9,8.7-7.46
			l-6.24-3.16c-0.96,1.9-2.61,3.31-4.63,3.98c-2.03,0.66-4.19,0.5-6.09-0.46c-3.92-1.99-5.5-6.79-3.51-10.72l-6.25-3.16
			C396.62,306.37,399.57,315.4,406.94,319.13z"/>
		<path class="st3" d="M480.66,183.46c-1.03,2.03-1.63,4.32-1.63,6.76c0,8.26,6.72,14.97,14.97,14.97v-7c-4.4,0-7.97-3.58-7.97-7.97
			c0-1.89,0.66-3.62,1.77-4.99L480.66,183.46z"/>
		<path class="st3" d="M493.81,258.19c-1.67,1.33-3.76,1.93-5.87,1.69l-0.79,6.96c0.57,0.06,1.14,0.1,1.71,0.1
			c3.37,0,6.62-1.13,9.3-3.26c3.13-2.49,5.1-6.05,5.55-10.03c0.93-8.2-4.99-15.63-13.19-16.56l-0.79,6.96
			c4.37,0.5,7.52,4.45,7.03,8.82C496.52,254.97,495.47,256.86,493.81,258.19z"/>
		<path class="st3" d="M475.64,317.25c0,8.26,6.72,14.97,14.97,14.97v-7c-4.4,0-7.97-3.58-7.97-7.97c0-4.4,3.58-7.97,7.97-7.97v-7
			C482.36,302.27,475.64,308.99,475.64,317.25z"/>
		<path class="st3" d="M414.66,399.3c2.74,2.17,6.02,3.22,9.27,3.22c4.42,0,8.81-1.95,11.76-5.68l-5.49-4.34
			c-2.73,3.45-7.75,4.03-11.2,1.31c-1.67-1.32-2.73-3.21-2.97-5.33c-0.25-2.12,0.35-4.2,1.67-5.87l-5.49-4.34
			c-2.48,3.14-3.59,7.05-3.13,11.03C409.54,393.27,411.52,396.82,414.66,399.3z"/>
		<path class="st3" d="M188.71,235.79l2.82-6.41c-7.56-3.33-16.41,0.11-19.74,7.66c-3.33,7.56,0.11,16.41,7.66,19.74l2.82-6.41
			c-1.95-0.86-3.45-2.43-4.22-4.41c-0.77-1.99-0.72-4.15,0.14-6.1C179.97,235.85,184.69,234.02,188.71,235.79z"/>
		<path class="st3" d="M403.18,445.42c-4.4,0-7.97-3.58-7.97-7.97c0-4.4,3.58-7.97,7.97-7.97v-7c-8.26,0-14.97,6.72-14.97,14.97
			c0,3.44,1.18,6.61,3.14,9.14h11.84V445.42z"/>
		<path class="st3" d="M165.07,202.11c2.13,1.08,4.43,1.62,6.75,1.62c1.57,0,3.14-0.25,4.68-0.75c3.8-1.25,6.89-3.9,8.7-7.46
			l-6.24-3.16c-0.96,1.9-2.61,3.31-4.63,3.98c-2.03,0.66-4.19,0.5-6.09-0.46c-3.92-1.99-5.5-6.79-3.51-10.72l-6.25-3.16
			C154.74,189.35,157.7,198.38,165.07,202.11z"/>
		<path class="st3" d="M505,433.46c0.45-3.97-0.67-7.89-3.17-11.01c-2.49-3.13-6.05-5.1-10.03-5.55l-0.79,6.96
			c2.12,0.24,4.01,1.29,5.34,2.95c1.33,1.67,1.93,3.75,1.69,5.87c-0.24,2.12-1.29,4.01-2.96,5.34c-1.67,1.33-3.75,1.93-5.87,1.69
			l-0.78,6.88h3.92c2.57-0.38,5-1.43,7.09-3.09C502.58,441,504.55,437.44,505,433.46z"/>
		<path class="st3" d="M331.13,438.49c1.77-4.02,6.49-5.85,10.51-4.08l2.82-6.41c-7.55-3.33-16.41,0.11-19.74,7.66
			c-1.54,3.49-1.67,7.34-0.44,10.92h7.83C330.39,444.34,329.91,441.25,331.13,438.49z"/>
		<path class="st3" d="M542.2,435.11c-1.67-1.32-2.73-3.21-2.97-5.33c-0.25-2.12,0.35-4.2,1.67-5.87l-5.49-4.34
			c-2.48,3.14-3.59,7.05-3.13,11.02c0.46,3.97,2.45,7.53,5.58,10.01c2.75,2.17,6.02,3.22,9.27,3.22c4.42,0,8.81-1.95,11.76-5.68
			l-5.49-4.34C550.67,437.26,545.65,437.84,542.2,435.11z"/>
		<path class="st3" d="M545.19,331.85c-0.66-2.02-0.5-4.19,0.46-6.08l-6.24-3.16c-1.81,3.57-2.12,7.63-0.87,11.43
			c1.25,3.8,3.9,6.89,7.46,8.7c0.73,0.37,1.48,0.65,2.24,0.89l1.45-6.9c-0.18-0.07-0.35-0.15-0.53-0.24
			C547.26,335.51,545.85,333.87,545.19,331.85z"/>
		<path class="st3" d="M345.58,333.8c3.96-0.58,7.46-2.66,9.85-5.87l-5.61-4.18c-1.27,1.71-3.13,2.82-5.24,3.12
			c-2.11,0.31-4.21-0.22-5.92-1.5c-1.71-1.27-2.82-3.13-3.12-5.24c-0.31-2.11,0.22-4.21,1.5-5.92l-5.61-4.18
			c-2.39,3.21-3.39,7.15-2.81,11.11s2.66,7.45,5.87,9.84c2.61,1.95,5.72,2.97,8.92,2.97C344.12,333.96,344.85,333.91,345.58,333.8z"
			/>
		<path class="st3" d="M359.39,280.62c0,8.26,6.72,14.97,14.97,14.97v-7c-4.4,0-7.97-3.58-7.97-7.97c0-4.4,3.58-7.97,7.97-7.97v-7
			C366.1,265.64,359.39,272.36,359.39,280.62z"/>
		<path class="st3" d="M362.63,368.56l-0.79,6.96c0.57,0.06,1.13,0.1,1.69,0.1c7.51,0,14-5.66,14.87-13.29
			c0.45-3.97-0.67-7.89-3.17-11.01c-2.49-3.13-6.05-5.1-10.03-5.55l-0.79,6.96c4.37,0.5,7.52,4.45,7.03,8.82
			C370.96,365.91,367,369.06,362.63,368.56z"/>
		<path class="st3" d="M280.12,341.3c2.74,2.17,6.02,3.22,9.27,3.22c4.42,0,8.81-1.95,11.76-5.68l-5.49-4.34
			c-2.73,3.45-7.75,4.04-11.2,1.31s-4.03-7.75-1.31-11.2l-5.49-4.34C272.54,326.74,273.64,336.17,280.12,341.3z"/>
		<path class="st3" d="M329.43,401.6c3.8-1.25,6.89-3.9,8.7-7.46l-6.25-3.16c-0.96,1.9-2.61,3.31-4.63,3.98
			c-2.02,0.66-4.18,0.5-6.09-0.46c-3.92-1.99-5.5-6.79-3.51-10.72l-6.25-3.16c-3.73,7.37-0.77,16.39,6.59,20.12
			c2.13,1.08,4.43,1.62,6.75,1.62C326.32,402.35,327.89,402.1,329.43,401.6z"/>
		<path class="st3" d="M210.61,177c7.38,0,13.76-5.46,14.8-12.89c-1.7-3.98-3.21-8.28-4.57-12.98c-2.34-2.21-5.31-3.61-8.56-3.98
			l-0.79,6.96c2.12,0.24,4.01,1.29,5.34,2.95c1.33,1.67,1.93,3.75,1.69,5.87c-0.24,2.12-1.29,4.01-2.96,5.34s-3.75,1.92-5.87,1.69"
			/>
		<path class="st3" d="M250.25,253.8v-7c-4.4,0-7.97-3.58-7.97-7.97c0-4.4,3.58-7.97,7.97-7.97v-7c-8.26,0-14.97,6.72-14.97,14.97
			C235.28,247.09,241.99,253.8,250.25,253.8z"/>
		<path class="st3" d="M346.84,237.6c-0.5,4.37-4.45,7.53-8.82,7.03l-0.79,6.96c0.57,0.06,1.13,0.1,1.69,0.1
			c7.51,0,14-5.66,14.87-13.29c0.21-1.87,0.05-3.69-0.39-5.41c-3.93-1.25-8.55-2.76-13.56-4.42l-0.03,0.23
			C344.18,229.28,347.33,233.24,346.84,237.6z"/>
		<path class="st3" d="M371.54,411.72C371.55,411.72,371.55,411.72,371.54,411.72c8.26,0,14.98-6.71,14.98-14.97l-7,0
			c0,4.4-3.58,7.97-7.97,7.97c0,0,0,0,0,0c-4.4,0-7.97-3.58-7.97-7.98l-7,0C356.57,405,363.29,411.72,371.54,411.72z"/>
	</g>
</g>
<g id="Layer_3">
	<path class="st2" d="M412,458.84c0.14-0.08,0.29-0.16,0.43-0.25c0.09-0.06,0.19-0.1,0.28-0.14c-0.65-1.78-1.38-3.53-2.15-5.27
		c-0.69-1.56,0.8-2.97,2.03-2.79c-10.72-34.48-23.78-51.87-39.06-51.87c-26.52,0-46.14,48.34-58.31,143.67
		c-9,70.44-10.45,141.81-10.46,142.52l3,0.06c0.01-0.71,1.46-71.93,10.44-142.22c11.78-92.26,30.92-141.03,55.33-141.03
		c14.81,0,27.78,19.56,38.4,57.31C411.96,458.84,411.98,458.84,412,458.84z"/>
	<path class="st2" d="M430.91,542.19c-3.65-27.61-7.86-51.26-12.62-70.96c-0.82,0.69-2.29,0.52-2.87-0.48
		c-0.11,0.03-0.23,0.05-0.35,0.08c4.85,19.82,9.16,43.77,12.85,71.73c9.29,70.29,11.36,141.51,11.38,142.22l3-0.08
		C442.29,683.99,440.21,612.63,430.91,542.19z"/>
	<path class="st9" d="M208.27,141.17c0,0,82.27-27.84,136.19-26.78c5.5,20-6.08,26.73-6.08,26.73l-78.79,72.04
		C259.59,213.16,202.35,205.85,208.27,141.17z"/>
	<path class="st9" d="M554.84,123.09c0,0-110.36-18.9-163.32-8.73c-2.03,20.64,7.12,32.79,7.12,32.79l106.59,53.97
		C505.23,201.11,571.63,185.82,554.84,123.09z"/>
	<line class="st6" x1="270.49" y1="203.18" x2="236.19" y2="236.78"/>
	<path class="st9" d="M379.86,195.62c13.18-7.07,35.31-11.51,38.05-18.87c0.28-9.32-31.47-65.39-31.47-65.39s-19.07-7.98-30.7-5.11
		c-12.21,3.01-17.03,16.88-18.03,16.88c-0.23,0-0.24,1.01-0.06,2.79l-0.75,100.35c0,0,66.77,32.72,77.35,32.72
		c3.34-7.18,2.4-28.47,2.4-28.47C409.56,237.96,388.16,228.53,379.86,195.62z"/>
	<path class="st10" d="M323.43,125.69c-0.85-9.35,0.83-20.26,8.81-25.21c1.56-0.97,3.35-1.7,4.44-3.17
		c2.02-2.72,0.92-6.93,3.07-9.55c2.06-2.51,6.29-2.49,8.06-5.21c0.71-1.09,0.89-2.44,1.05-3.74c0.69-5.64,1.54-11.51,4.77-16.18
		s9.59-7.7,14.75-5.34c1.03,0.47,2.19,1.15,3.22,0.66c0.52-0.24,0.86-0.74,1.2-1.21c2.32-3.28,5.23-6.36,9.01-7.73
		c3.78-1.36,8.57-0.56,10.89,2.71c3.36,4.73,0.09,11.44-4.28,15.27c-0.86,0.75-1.82,1.55-2.06,2.67c-0.6,2.83,3.37,4.15,5.2,6.39
		c3.34,4.09-1.19,10.08-0.63,15.33c0.25,2.37,1.55,4.5,2.16,6.81c1.2,4.55-0.37,9.32-1.92,13.76c-0.52,1.48-1.16,3.1-2.59,3.75
		c-2.13,0.97-4.41-0.79-6.49-1.86c-6.11-3.15-13.53-0.39-19.58,2.89c-5.92,3.21-12.11,7.67-13.21,14.31
		c-1.12,6.72,3.41,13.13,3.7,19.93c0.38,8.79-5.59,16.53-3.79,25.44C332.6,166.37,325.08,143.92,323.43,125.69z"/>
	<path class="st4" d="M385.42,137.38c0.99,2.36,1.57,4.95,3.17,6.94c1.53,1.91,3.8,3.03,5.87,4.34c0.69,0.43,1.39,0.93,1.75,1.66
		c0.84,1.7-0.55,3.67-2.06,4.82c-2.34,1.79-5.19,2.89-8.12,3.15c-0.74,0.06-1.62,0.01-2.04-0.6c-0.55-0.8,0.06-1.84,0.48-2.71
		c1.45-2.99,0.55-6.56-0.74-9.62c-1.06-2.52-3.46-6.23-3.34-9.06C380.55,132.54,384.56,135.33,385.42,137.38z"/>
	<path class="st11" d="M367.32,143.88c-0.9-3.72,2.8-5.85,5.61-4.4"/>
	<path class="st11" d="M388.55,134.23c1.22-2.79,4.39-2.58,5.36-0.45"/>
	<path class="st4" d="M365.39,127.22l-6.96,4.85c-1.13,0.79-2.71,0.51-3.5-0.62l0,0c-0.79-1.13-0.51-2.71,0.62-3.5l6.96-4.85
		c1.13-0.79,2.71-0.51,3.5,0.62v0C366.8,124.85,366.52,126.43,365.39,127.22z"/>
	<path class="st4" d="M392.79,119.38l-8.48,0.4c-1.38,0.07-2.56-1.01-2.63-2.39v0c-0.07-1.38,1.01-2.56,2.39-2.63l8.48-0.4
		c1.38-0.07,2.56,1.01,2.63,2.39v0C395.24,118.13,394.17,119.31,392.79,119.38z"/>
	<path class="st2" d="M399.4,165.48c-0.07,0.14-0.14,0.28-0.1,0.43c0.08,0.32,0.53,0.31,0.84,0.23c1.05-0.28,2.07-0.66,3.04-1.14
		c0.58-0.29,1.16-0.62,1.6-1.11c0.91-1.02,1.03-2.62,0.4-3.83c-0.39-0.75-1.16-1.56-1.98-1.83c-1.22-0.4-1.16-0.03-1.5,1.12
		C401.1,161.46,400.37,163.51,399.4,165.48z"/>
	<circle class="st0" cx="368.58" cy="163.76" r="7.31"/>
	<circle class="st0" cx="407.58" cy="145.14" r="7.31"/>
	<line class="st12" x1="373.53" y1="481.48" x2="373.53" y2="689.18"/>
	<line class="st12" x1="201.9" y1="481.48" x2="201.9" y2="635.99"/>
	<line class="st12" x1="201.9" y1="540.99" x2="373.53" y2="540.99"/>
	<line class="st12" x1="914" y1="481.48" x2="914" y2="532.99"/>
	<line class="st12" x1="742.37" y1="481.48" x2="742.37" y2="678.68"/>
	<line class="st12" x1="742.37" y1="540.99" x2="908.57" y2="540.99"/>
</g>
<g id="Layer_5">
</g>
<g id="Layer_2">
	<path class="st13" d="M361.93,469.65c2.15-3.44,6.27-3.55,9.65-2.1c6.28,2.68,11.34,8.18,15.78,13.93h54.32
		c-4.88-5.41-8.87-11.52-12.88-18.21c-1.65-2.76-6.1-6.84-9.83-4.92c-1.74,0.9-2.17,3.17-2.69,4.88c-0.94,3.04-1.8,6.22-4.64,8.05
		c-6.57,4.23-14.57-2.94-19.15-7.07c-6.21-5.6-11.72-13.39-18.64-18.44h-32.47v35.71h20.26
		C360.53,477.32,359.96,472.8,361.93,469.65z"/>
	<path class="st13" d="M375.89,472.97c-2.77-2.29-8.45-6.51-11.68-2.64c-2.17,2.59-1.48,7.1-0.32,11.15h20.38
		C381.7,478.42,378.96,475.51,375.89,472.97z"/>
	<path class="st13" d="M448.75,446.21c-0.04-0.16-0.04-0.31-0.02-0.45H377.4c5.4,4.61,10.02,10.64,14.98,15.32
		c3.55,3.35,7.63,7.33,12.42,8.77c5.52,1.66,7.78-2.25,9.22-6.86c0.83-2.65,1.55-5.69,4.4-6.82c3.17-1.26,7.52,0.29,9.85,2.57
		c1.98,1.93,3.03,4.63,4.32,7.01c1.57,2.89,3.49,5.63,5.42,8.28c1.96,2.69,4.08,5.16,6.36,7.44h31.33
		C463.29,473.01,451.06,455.57,448.75,446.21z"/>
	<path class="st13" d="M497.82,481.48h30.61c-4.14-8.53-5-18.53-13.71-24.28c-4.84-3.19-11.85-6.22-15.05-11.43H478.1
		c1.51,4.33,4.41,7.98,7.12,11.74c0.84,1.16-1.09,2.27-1.92,1.12c-2.95-4.09-6.08-8.08-7.55-12.86h-24.8
		c2.8,11.11,12.1,21.94,20.27,29.49c2.34,2.16,5.01,4.46,7.94,6.22h15.82c2.06-2.15,3.45-5.18,4.41-8.18
		c0.43-1.36,2.58-0.78,2.15,0.59C500.51,477.08,499.26,479.58,497.82,481.48z"/>
	<path class="st13" d="M569.79,459c-6.03-2.29-17.86-5.03-17.5,4.91c0.22,6.24,3.7,12.46,7.42,17.56h45.02
		C593.54,473.16,582.89,463.97,569.79,459z"/>
	<path class="st13" d="M603.85,460.65c9.15,8.27,20.09,14.24,30.52,20.83h41.32c-12.74-12.58-24.81-28.72-33.96-35.71H529.12
		c2.02,3.02,4.48,5.73,7.22,8.14c1.08,0.95-0.5,2.52-1.57,1.57c-3.23-2.84-6.03-6.08-8.25-9.71h-24.29
		c3.97,5.31,12.8,8.25,17.28,12.2c6.88,6.06,7.37,15.75,11.42,23.52h26.27c-5.88-9.41-13.34-27.31,2.7-26.96
		c11.8,0.26,23.13,8.31,32.25,15c5.39,3.95,10.65,8.1,16.09,11.96h21.94c-9.63-5.97-19.51-11.65-27.91-19.25
		C601.21,461.26,602.79,459.7,603.85,460.65z"/>
	<path class="st13" d="M684.16,464.18c6.45,4.99,18.53,11.05,26.79,6.95c8.43-4.19,0.69-17.25-5.68-25.37h-37.41
		C672.45,452.61,677.63,459.13,684.16,464.18z"/>
	<path class="st13" d="M763.29,472.52c-6.76-4.65-12.36-9.74-17.42-16.19c-2.78-3.55-5.49-7.17-8.47-10.56h-29.27
		c6.6,8.75,13.32,21.56,4.55,26.95c-7.52,4.62-19.68-0.02-26.28-4.2c-8.85-5.61-15.5-14.03-21.24-22.75H645.4
		c3.46,2.99,6.54,6.58,9.51,9.82c6.63,7.23,13.02,14.69,19.95,21.63c1.35,1.35,2.83,2.8,4.4,4.26h98.96
		C772.65,478.7,767.5,475.41,763.29,472.52z"/>
	<path class="st13" d="M793.74,459.3c5.36-0.06,2.74-7.71,1.02-13.54h-17.62C781.89,451.42,784.67,459.4,793.74,459.3z"/>
	<path class="st13" d="M837.27,474.89c-1.97-1.91-5.37-4.63-7.92-1.99c-2.49,2.57-0.63,6.16,1.99,8.58h11.22
		C841.02,479.09,839.28,476.83,837.27,474.89z"/>
	<path class="st13" d="M829.41,457.06c-8.12-2.59-15.67,1.18-14.26,10.41c0.75,4.91,2.84,9.54,5.05,14.01h8.08
		c-1.27-1.69-2.1-3.66-2.19-5.63c-0.15-3.56,2.79-6.61,6.41-6.23c5.35,0.57,9.72,6.45,12.84,11.86h13.9
		C851.94,471.18,840.98,460.75,829.41,457.06z"/>
	<path class="st13" d="M911.68,467.09c-5.63,1.77-13.32,7.67-12.02,14.39h26.95C926.22,472.63,922.02,463.85,911.68,467.09z"/>
	<path class="st13" d="M944.82,457.86c3.87-3.08,6.63-7.49,8.98-12.09h-20.21c-0.23,2.43-0.2,4.86,0.2,7.18
		C934.83,458.95,939.84,461.82,944.82,457.86z"/>
	<path class="st13" d="M956.12,445.77c-1.23,2.38-2.54,4.71-4.03,6.94c-2.49,3.74-6.01,8.62-10.81,9.34
		c-8.93,1.35-10.45-8.02-9.74-16.29h-69.01c5.02,3.51,10.19,6.8,15.83,9.31c1.31,0.58,0.17,2.5-1.12,1.92
		c-6.67-2.97-12.66-7.01-18.54-11.24h-61.71c1.83,5.73,4.78,13.09-0.33,15.34c-4.16,1.83-10.59-0.91-13.66-3.72
		c-3.52-3.22-5.44-8.3-8.82-11.62h-33.7c0.81,1.06,1.55,2.05,2.18,2.84c4.96,6.22,9.44,12.51,15.69,17.51
		c7.81,6.23,16.62,11.65,25.92,15.37h33.45c-2.6-5.27-4.99-10.91-5.02-16.68c-0.03-6.98,5.3-11.13,12.1-10.86
		c8.3,0.33,16,6.09,22.05,11.26c5.56,4.76,10.85,10.22,15.08,16.28h35.5c-1.19-7.95,7.44-14.87,14.35-16.73
		c11.6-3.12,16.65,6.76,17.08,16.73h51.9v-35.71H956.12z"/>
	<path class="st4" d="M193.42,462.38c8.34,3.12,18.8,2.86,26.44-2.04c5.96-3.82,7.44-9.18,6.25-14.58H170.9
		C178.09,451.67,184.62,459.09,193.42,462.38z"/>
	<path class="st4" d="M247.02,476.74c-4.38-4.84-9.87-10.05-16.75-10.57c-8.83-0.67-11.66,7.95-11.95,15.31h32.94
		C249.85,479.92,248.45,478.32,247.02,476.74z"/>
	<path class="st4" d="M141.72,464.44v17.04h19.63C156.97,473.9,149.59,468.56,141.72,464.44z"/>
	<path class="st4" d="M263.77,473.88c-8.98-7.61-17.61-17.19-22.77-28.11h-12.15c0.83,3.93,0.35,7.97-2.35,11.75
		c-4.78,6.69-13.87,9.33-21.73,9.35c-9.93,0.02-17.99-4.33-25.32-10.66c-4.03-3.48-8-7.34-12.32-10.44h-25.41v15.91
		c9.12,4.62,17.75,10.75,22.43,19.8h51.68c0.14-5.9,1.67-12.45,6.71-15.85c5.34-3.6,12.34-1.7,17.4,1.5
		c5.86,3.71,10.22,9.24,14.8,14.35h19.22C270.34,479.14,266.92,476.54,263.77,473.88z"/>
	<path class="st4" d="M289.08,445.77c4.27,7.99,5.41,19.66,15.15,21.89c8.62,1.98,5.21-9.29,4.85-14.31
		c-0.19-2.55-0.18-5.18,0.39-7.59H289.08z"/>
	<path class="st4" d="M311.91,445.77c-1.48,4.73,0.17,11.1,0.43,15.55c0.27,4.45-0.49,9.17-5.89,9.16
		c-7.42-0.01-11.94-5.75-14.66-11.92c-1.67-3.78-3.02-8.95-5.52-12.78h-24.23c3,4.91,8.02,8.37,13.2,11.01
		c1.42,0.72,0.17,2.86-1.25,2.14c-5.99-3.06-11.68-7.21-14.79-13.14h-15.46c4.89,9.81,12.66,18.43,20.72,25.45
		c4.25,3.7,9.04,7.31,14.18,10.26h67.89v-35.71H311.91z"/>
</g>
<g id="Layer_9">
</g>
<g id="Layer_4">
</g>
<g id="Layer_8">
	<path class="st6" d="M427.89,594.43c0,0,115.53-83.74,129.32-86.43c13.79-2.7-16.78-17.62-28.78-17.65"/>
</g>
<g id="Layer_11">
	<g>
		<path class="st9" d="M509.76,445.92h98.14c4.22,0,7.65-3.42,7.65-7.65v0c0-4.22-3.42-7.65-7.65-7.65h-98.14V445.92z"/>
		<path class="st9" d="M516.5,438.28c0-4.15-3.31-7.52-7.43-7.64l-0.05,0c-0.05,0-49.09,7.42-49.09,7.42
			c-2.17,0-3.93,1.76-3.93,3.93c0,2.17,1.76,3.93,3.93,3.93c0.07,0,0.14-0.02,0.21-0.02l2.45,0.02h46.48v-0.01
			C513.19,445.8,516.5,442.43,516.5,438.28z"/>
	</g>
	<path class="st2" d="M385.05,605.71c-0.2,2.79,0.53,5.55,0.8,8.33c0.53,5.4-0.68,10.79-1.32,16.17c-0.94,7.87-0.54,16.3,3.67,23.01
		c1.64,2.62,4,5,7.01,5.71s6.66-0.82,7.49-3.79c0.66-2.34-0.47-4.76-1.38-7.01c-2.95-7.34-3.72-15.29-4.76-23.06
		c-0.88-6.6-1.7-14.77-5-20.69C389.72,601.06,385.33,601.8,385.05,605.71z"/>
	<path class="st3" d="M787.07,378.85H451.53c-11.16,0-19.45-10.33-17.04-21.22l40.95-184.88c3.31-14.96,16.57-25.6,27.89-25.6H836.6
		c15.68,0,24.35,10.81,21.83,22.21l-41,185.13C814.27,368.72,801.65,378.85,787.07,378.85z"/>
	<path class="st1" d="M836.6,147.15H601.05c-8.39,6.61-15.66,15.02-21.29,23.28c-6.65,9.74-17.6,29.44-5.1,39.12
		c6.3,4.88,15.04,4.96,22.62,4.66c9.89-0.4,19.74-1.67,29.65-1.33c8.16,0.28,16.99,1.57,23.6,6.76c5.69,4.47,9.84,12.18,8.22,19.53
		c-1.67,7.53-8.11,13.27-13.94,17.78c-7.74,5.98-16.32,10.78-24.69,15.8c-7.18,4.3-14.27,8.52-19.2,15.46
		c-5.46,7.69-9.02,16.98-10.23,26.33c-1.22,9.42,0.05,19.94,6.8,27.14c7.29,7.78,16.55,8.85,26.18,5.43
		c9.36-3.33,17.81-8.75,27.11-12.22c7.23-2.69,15.63-4.11,22.21,0.91c8.64,6.6,6.5,18.81,9,28.16c1.42,5.29,3.57,10.37,6.5,14.89
		h98.58c14.58,0,27.2-10.13,30.35-24.37l41-185.13C860.95,157.95,852.27,147.15,836.6,147.15z"/>
	<polygon class="st0" points="620.29,267.98 587.49,378.85 707.86,378.98 726.36,270.77 	"/>
	<path class="st14" d="M787.07,378.85H451.53c-11.16,0-19.45-10.33-17.04-21.22l40.95-184.88c3.31-14.96,16.57-25.6,27.89-25.6
		H836.6c15.68,0,24.35,10.81,21.83,22.21l-41,185.13C814.27,368.72,801.65,378.85,787.07,378.85z"/>
	<path class="st14" d="M467.69,328.63l35.43-155.88c3.31-14.96,16.57-25.6,31.89-25.6"/>
	<path class="st3" d="M620.29,439.78c5.39,0,10.4-1.64,14.56-4.45c8.41-5.68,12.44-15.99,10.72-25.99l-25.28-141.36h105.15
		l51.93,156.68c3.44,10.39-4.29,21.11-15.24,21.11H641.45h-63.32c-1.44,0-2.69-0.97-3.05-2.37l0,0c-0.51-2,1.01-3.94,3.07-3.92
		L620.29,439.78z"/>
	<g>
		<path class="st0" d="M664.78,445.77l-32.15-177.78h-12.44l25.28,141.36c1.72,10-2.31,20.31-10.72,25.99
			c-4.16,2.81-9.16,4.45-14.56,4.45l-42.13-0.3c-1.18-0.01-7.41,6.29,3.42,6.29C599.88,445.77,664.78,445.77,664.78,445.77z"/>
	</g>
	<path class="st14" d="M620.29,439.78c5.39,0,10.4-1.64,14.56-4.45c8.41-5.68,12.44-15.99,10.72-25.99l-25.28-141.36h105.15
		l51.93,156.68c3.44,10.39-4.29,21.11-15.24,21.11H641.45h-63.32c-1.44,0-2.69-0.97-3.05-2.37l0,0c-0.51-2,1.01-3.94,3.07-3.92
		L620.29,439.78z"/>
	<line class="st6" x1="526.24" y1="304.37" x2="517.8" y2="342.51"/>
	<line class="st6" x1="535.77" y1="304.37" x2="527.33" y2="342.51"/>
	<line class="st6" x1="545.31" y1="304.37" x2="536.86" y2="342.51"/>
	<line class="st6" x1="554.84" y1="304.37" x2="546.39" y2="342.51"/>
	<path class="st0" d="M700.23,223.82c-3.36,12.82-16.47,23.2-29.29,23.2s-20.97-10.39-18.22-23.2c2.75-12.82,15.86-23.2,29.29-23.2
		C695.43,200.62,703.59,211.01,700.23,223.82z"/>
	<path class="st3" d="M713.9,177.31c0,0-3.15,10.3-11.57,15.2s-18.93,2.55-18.93,2.55s3.15-10.3,11.57-15.2
		C703.39,174.96,713.9,177.31,713.9,177.31z"/>
	<path class="st0" d="M435.72,593.28c3.77,7.24,5.93,6.81,10.62,9.46c-8.09,4.1-18.15,9.82-26.25,13.92
		c-0.4,0.2-0.83,0.41-1.28,0.39c-0.59-0.03-1.08-0.43-1.51-0.84c-5.35-5.03-8.07-12.72-7.07-19.99c0.09-0.62,0.21-1.26,0.56-1.78
		c0.33-0.48,0.82-0.82,1.31-1.15c5.3-3.54,8.26-4.66,13.89-7.7c2.86-1.54,8.64-4.56,8.64-4.56S434.07,590.11,435.72,593.28z"/>
	<path class="st7" d="M631,645.93c-3.33,3.3-5.77,9.48-11.35,9.13c-0.05,0.02-4.81-11.86-13.57-4.95c-8.76,6.9,6.08,9.69,3.91,14.41
		c-1.79,3.88-3.4,8.43-3.76,12.94c3.87,4.92,13.05,10.23,26.28,13.7c3.16,0.83,5.81-6.55,7.33-9.44c1.53-2.89,2.15-6.16,3.02-9.31
		c2.95-10.68,8.82-20.27,13.46-30.33c1.48-3.2,6.48-9.63,6.57-13.16C650.04,629.85,638.59,638.41,631,645.93z"/>
	<path class="st2" d="M665.69,630.2c-0.52-0.7-1.39-1.05-2.25-1.2c-3.77-0.65-7.31,1.88-10.05,4.53
		c-9.71,9.4-15.82,22.44-16.84,35.92c-0.28,3.67-0.27,7.59-0.96,11.2c0.08,0.22,0.08,0.49-0.04,0.78c-0.08,0.2-0.17,0.4-0.26,0.6
		c-0.5,1.99-1.26,3.86-2.46,5.5c-0.36,1.16-0.53,2.35-0.34,3.63c0.86,0.33,1.74,0.52,2.66,0.42c1.45-0.16,2.71-1.01,3.92-1.84
		c4.19-2.89,8.71-6.24,9.78-11.22c0.33-1.52,0.31-3.13,0.92-4.56c0.52-1.22,1.46-2.2,2.35-3.19c9.26-10.29,14.44-24.15,14.19-37.98
		C666.29,631.9,666.24,630.93,665.69,630.2z"/>
	<path class="st15" d="M620.21,651.65"/>
	<path class="st7" d="M390.81,603.16c-0.42,0.24-0.85,0.51-1.05,0.95c-0.21,0.46-0.11,0.99,0,1.49c0.49,2.27,1.07,4.53,1.23,6.84
		c0.28,4.06-0.72,8.08-1.19,12.12c-1.17,10.07,1.27,20.74,7.42,28.72c1.2,1.56,3.49,1.76,4.96,0.46c3.63-3.22,7.05-6.72,8.88-11.17
		c3.02-7.32,1.2-15.88,3.88-23.33c0.15-0.41,0.31-0.82,0.62-1.13c0.35-0.35,0.83-0.53,1.3-0.71c2.39-0.93,4.61-2.3,6.51-4.03
		c1.34-1.22,2.62-2.8,1.78-4.88c-0.26-0.65-0.71-1.22-1.27-1.64c-1.71-1.32-3.89-1.36-5.94-1.14c-2.05,0.22-4.07,0.67-6.01,1.34
		c-0.16,0.06-0.73-8.03-0.71-8.78c0.02-0.77,0.59-3-0.09-3.54c-0.09-0.07-0.21-0.07-0.32-0.04
		C403.8,596.66,397.07,599.51,390.81,603.16z"/>
	<g>
		<path class="st1" d="M745.65,696.74c0.97-3.19,25.77-143.99,32.64-143.99s9.36,34,9.36,34h25.67c0,0-6.39-39.37,1.11-39.37
			c11.21,0,68.78,98.62,68.78,149.37C820,696.58,745.65,696.74,745.65,696.74z"/>
		<path class="st13" d="M830.41,571.06c1.05-0.32,2.2-0.65,3.37-1.02c-8.9-13.79-16.43-22.67-19.8-22.67
			c-4.59,0-3.98,14.76-2.81,26.21C817.7,573.48,824.07,573.01,830.41,571.06z"/>
		<path class="st4" d="M861.97,621.84c-1.96-4.15-3.98-8.26-6.04-12.26c-9.37,8.8-67.55,32.16-94.13,3.92
			c-1.03,5.02-2.06,10.1-3.07,15.15C768.94,640.44,820.64,649.1,861.97,621.84z"/>
		<circle class="st2" cx="809.84" cy="601.59" r="3.48"/>
		<circle class="st2" cx="781.77" cy="601.59" r="3.48"/>
		<circle class="st13" cx="832.25" cy="616.62" r="10.19"/>
		<circle class="st13" cx="764.57" cy="616.62" r="10.19"/>
		<polygon class="st2" points="788.75,605.89 800.14,605.89 793.21,613.49 		"/>
		<path class="st1" d="M869.84,694.27c8.93,3.9,19.75,3.13,28.04-2.01c8.28-5.13,13.8-14.48,14.28-24.21
			c0.16-3.23-0.25-6.62-1.99-9.35c-1.74-2.73-5.07-4.61-8.23-3.93c-2.68,0.58-4.71,2.79-6.1,5.16s-2.33,4.98-3.9,7.23
			c-3.89,5.59-11.73,8.06-18.13,5.71c-2.15-0.79-4.12-2.05-6.33-2.65c-2.21-0.6-4.89-0.35-6.33,1.43c-1.13,1.4-1.22,3.36-1.04,5.15
			c1.11,10.75,11.31,19.76,22.12,19.54"/>
		<path class="st13" d="M910.6,676.05c0.88-2.58,1.42-5.27,1.55-8c0.16-3.23-0.25-6.62-1.99-9.35c-1.74-2.73-5.07-4.61-8.23-3.93
			c-2.68,0.58-4.71,2.79-6.1,5.16c-0.65,1.11-1.2,2.27-1.77,3.43C901.1,664.35,907.03,669.5,910.6,676.05z"/>
	</g>
</g>
<g id="Layer_16">
</g>
<g id="Layer_1">
	<g>
		<path class="st13" d="M117.06,286.17l-60.72-26.02c-7.61-3.26-11.14-12.08-7.88-19.69l26.02-60.72
			c3.26-7.61,12.08-11.14,19.69-7.88l60.72,26.02c7.61,3.26,11.14,12.08,7.88,19.69l-26.02,60.72
			C133.49,285.9,124.68,289.43,117.06,286.17z"/>
		<g>
			<path class="st12" d="M103.47,240.46l-21.52-9.22c-2.94-1.26-4.3-4.67-3.04-7.61l12.35-28.83c1.26-2.94,4.67-4.3,7.61-3.04
				l16.25,6.96l6.56,13.97l-10.6,24.73C109.81,240.36,106.41,241.72,103.47,240.46z"/>
			<polyline class="st12" points="115.11,198.72 110.79,208.81 121.39,213.36 			"/>
			<path class="st12" d="M119.71,217.28l5.49,2.35l6.56,13.97l-10.6,24.73c-1.26,2.94-4.67,4.3-7.61,3.04l-21.52-9.22
				c-2.94-1.26-4.3-4.67-3.04-7.61l3.72-8.69"/>
			<polyline class="st12" points="125.19,219.63 120.87,229.72 131.47,234.26 			"/>
		</g>
	</g>
	<g>
		<path class="st7" d="M977.98,401.96l-50.87,26.41c-7.68,3.99-17.13,0.99-21.12-6.69l-26.41-50.87
			c-3.99-7.68-0.99-17.13,6.69-21.12l50.87-26.41c7.68-3.99,17.13-0.99,21.12,6.69l26.41,50.87
			C988.65,388.52,985.65,397.98,977.98,401.96z"/>
		<g>
			<g>
				<g>
					<line class="st16" x1="937.86" y1="359.4" x2="941.41" y2="357.56"/>
					<path class="st17" d="M949.21,355.52c2.21,0.47,4.2,1.89,5.33,4.05l10.39,20.02c1.99,3.84,0.5,8.57-3.34,10.56l-21.65,11.24
						c-3.84,1.99-8.57,0.5-10.56-3.34l-0.07-0.13"/>
					<line class="st16" x1="927.4" y1="394.24" x2="925.56" y2="390.69"/>
				</g>
			</g>
			<path class="st12" d="M939.29,382.29l-22.09,11.47c-3.92,2.04-8.75,0.51-10.78-3.41l-10.61-20.43
				c-2.04-3.92-0.51-8.75,3.41-10.78l22.09-11.47c3.92-2.04,8.75-0.51,10.78,3.41l10.61,20.43
				C944.74,375.42,943.21,380.25,939.29,382.29z"/>
			<line class="st12" x1="897.72" y1="373.58" x2="934.01" y2="354.74"/>
			<g>
				<path class="st3" d="M899.91,363.43c-1,0.52-1.39,1.75-0.87,2.75c0.52,1,1.76,1.39,2.75,0.87s1.39-1.75,0.87-2.75
					C902.15,363.3,900.91,362.91,899.91,363.43z"/>
				<path class="st3" d="M904.32,361.14c-1,0.52-1.39,1.75-0.87,2.75c0.52,1,1.76,1.39,2.75,0.87c1-0.52,1.39-1.75,0.87-2.75
					C906.56,361.01,905.32,360.62,904.32,361.14z"/>
				<path class="st3" d="M908.97,358.73c-1,0.52-1.39,1.75-0.87,2.75c0.52,1,1.76,1.39,2.75,0.87c1-0.52,1.39-1.75,0.87-2.75
					C911.2,358.6,909.97,358.21,908.97,358.73z"/>
			</g>
		</g>
	</g>
	<path class="st18" d="M900.85,395.87c-95.76,9.2-234.72,9.29-388.7-1.9C227.03,373.25-1.58,321.7,1.53,278.83
		c0.95-13.03,23.2-23.76,61.72-31.8"/>
	<path class="st18" d="M891,288.94c89.93,20.6,144.59,43.82,143.06,64.93c-0.88,12.05-19.98,22.14-53.32,29.94"/>
	<path class="st19" d="M811.05,291.15c-76.66,17.79-170.86,35.69-273.14,51.19c-262.73,39.8-479.27,48.64-483.64,19.74
		c-2.48-16.38,52.39-38.56,158.1-64.39"/>
	<path class="st19" d="M851.39,201.11c94.65-4.57,152.03,1.72,154.32,16.84c1.4,9.22-18.96,21.16-55.85,34.44"/>
	<g>
		<path class="st13" d="M44.39,224.87L44.39,224.87c-1.03,1.03-2.7,1.03-3.73,0l-11.45-11.45c-1.03-1.03-1.03-2.7,0-3.73l0,0
			c1.03-1.03,2.7-1.03,3.73,0l11.45,11.45C45.41,222.16,45.41,223.84,44.39,224.87z"/>
		<path class="st13" d="M29.21,224.87L29.21,224.87c-1.03-1.03-1.03-2.7,0-3.73l11.45-11.45c1.03-1.03,2.7-1.03,3.73,0l0,0
			c1.03,1.03,1.03,2.7,0,3.73l-11.45,11.45C31.91,225.89,30.23,225.89,29.21,224.87z"/>
	</g>
	<circle class="st20" cx="127.21" cy="170.09" r="6.34"/>
	<polygon class="st21" points="63.16,285.04 71.23,288.53 79.31,292.02 72.25,297.26 65.19,302.51 64.18,293.78 	"/>
	<circle class="st22" cx="310.05" cy="298.04" r="6.34"/>
	<circle class="st22" cx="218.58" cy="408.76" r="10.75"/>
	<circle class="st23" cx="997.65" cy="342.51" r="10.75"/>
	<circle class="st23" cx="854.89" cy="377.96" r="7.25"/>
	<circle class="st23" cx="899.27" cy="324.24" r="3.62"/>
	<circle class="st22" cx="194.7" cy="333.81" r="5.18"/>
	<polygon class="st24" points="252.17,418.69 259.61,421.9 267.04,425.11 260.54,429.94 254.04,434.77 253.11,426.73 	"/>
	<polygon class="st25" points="1005.39,397.98 1003.57,405.87 1001.74,413.75 995.82,408.23 989.91,402.71 997.65,400.34 	"/>
	<polygon class="st25" points="823.45,416.45 828.68,416.48 833.91,416.52 831.26,421.03 828.62,425.54 826.03,421 	"/>
</g>
<g id="Layer_17">
	<g>
		<path class="st4" d="M283.29,418.94l-53.96-22.92c-10.98-4.66-16.1-17.34-11.44-28.32l22.92-53.96
			c4.66-10.98,17.34-16.1,28.32-11.44l53.96,22.92c10.98,4.66,16.1,17.34,11.44,28.32l-22.92,53.96
			C306.95,418.48,294.27,423.6,283.29,418.94z"/>
		<g>
			<path class="st3" d="M248.73,375.69L248.73,375.69c-3.86-1.64-5.66-6.09-4.02-9.95l7.7-18.12c1.64-3.86,6.09-5.66,9.95-4.02h0
				c3.86,1.64,5.66,6.09,4.02,9.95l-7.7,18.12C257.04,375.53,252.59,377.33,248.73,375.69z"/>
			<path class="st3" d="M269.98,384.72L269.98,384.72c-3.86-1.64-5.66-6.09-4.02-9.95l11.05-26.02c1.64-3.86,6.09-5.66,9.95-4.02h0
				c3.86,1.64,5.66,6.09,4.02,9.95l-11.05,26.02C278.29,384.56,273.84,386.36,269.98,384.72z"/>
			<circle class="st3" cx="267.19" cy="332.22" r="7.59"/>
			<path class="st3" d="M291.85,392.85c-3.35-1.42-4.92-5.3-3.49-8.65l6.76-15.91c0.46-1.09,1.64-4.8-2.68-6.63
				c-2.36-1-3.34-0.58-3.66-0.44c-2.86,1.24-5.17,7.55-6.42,10.94c-0.4,1.1-0.79,2.14-1.17,3.05l-1.5,3.54
				c-1.42,3.35-5.3,4.92-8.65,3.49c-3.35-1.42-4.92-5.3-3.49-8.65l1.5-3.54c0.26-0.61,0.59-1.5,0.93-2.44
				c2.06-5.62,5.51-15.02,13.56-18.5c2.96-1.28,7.81-2.25,14.06,0.4c9.58,4.07,13.73,14.35,9.66,23.93l-6.76,15.91
				C299.08,392.71,295.2,394.27,291.85,392.85z"/>
		</g>
	</g>
	<g>
		<polygon class="st4" points="812.03,234.61 943.62,260.1 853.88,325.17 836.58,287.73 925.04,263.65 826.44,264.03 		"/>
		<polygon class="st0" points="826.44,264.03 822.81,306.42 836.58,287.73 925.04,263.65 		"/>
		<polygon class="st13" points="822.81,306.42 842.05,299.57 836.58,287.73 		"/>
	</g>
</g>
<g id="Layer_15">
</g>
</svg>
